<svg width="55" height="59" viewBox="0 0 55 59" fill="none" xmlns="http://www.w3.org/2000/svg">
<path d="M6.55434 58.8445C4.89104 58.8445 3.46665 58.2527 2.28117 57.0693C1.09771 55.8838 0.505981 54.4594 0.505981 52.7961V39.0361L8.82247 29.5855L13.1319 33.895L7.08357 40.6994H48.3636L42.4665 34.0462L46.7759 29.7367L54.9412 39.0361V52.7961C54.9412 54.4594 54.3495 55.8838 53.166 57.0693C51.9805 58.2527 50.5561 58.8445 48.8928 58.8445H6.55434ZM23.4897 35.8607L12.9807 25.2005C11.8215 24.0412 11.2418 22.6047 11.2418 20.891C11.2418 19.1773 11.8215 17.7408 12.9807 16.5815L27.7992 1.76307C28.9585 0.603804 30.3949 0.0241699 32.1087 0.0241699C33.8224 0.0241699 35.2588 0.603804 36.4181 1.76307L47.0783 12.2721C48.2376 13.4314 48.8303 14.8547 48.8566 16.5422C48.8808 18.2317 48.3132 19.6561 47.1539 20.8154L32.033 35.9363C30.8738 37.0956 29.4504 37.6631 27.7629 37.6389C26.0734 37.6127 24.649 37.02 23.4897 35.8607ZM42.8445 16.5059L32.1087 5.92132L17.139 20.891L27.8748 31.4756L42.8445 16.5059Z" fill="#FFFFFF"/>
</svg>
