<svg width="923" height="237" viewBox="0 0 923 237" fill="none" xmlns="http://www.w3.org/2000/svg">
<path d="M86.6112 161.68H92.8512V190H86.6112V161.68ZM97.0228 161.68H105.503L117.543 181.36H117.623V161.68H123.863V190H115.703L103.343 169.84H103.263V190H97.0228V161.68ZM128.376 161.68H147.376V167.44H134.616V173.2H146.416V178.96H134.616V190H128.376V161.68ZM148.822 175.84C148.822 173.573 149.196 171.52 149.942 169.68C150.716 167.84 151.782 166.28 153.142 165C154.502 163.693 156.116 162.693 157.982 162C159.849 161.307 161.889 160.96 164.102 160.96C166.316 160.96 168.356 161.307 170.222 162C172.089 162.693 173.702 163.693 175.062 165C176.422 166.28 177.476 167.84 178.222 169.68C178.996 171.52 179.382 173.573 179.382 175.84C179.382 178.107 178.996 180.16 178.222 182C177.476 183.84 176.422 185.413 175.062 186.72C173.702 188 172.089 188.987 170.222 189.68C168.356 190.373 166.316 190.72 164.102 190.72C161.889 190.72 159.849 190.373 157.982 189.68C156.116 188.987 154.502 188 153.142 186.72C151.782 185.413 150.716 183.84 149.942 182C149.196 180.16 148.822 178.107 148.822 175.84ZM155.302 175.84C155.302 177.173 155.502 178.4 155.902 179.52C156.329 180.613 156.929 181.573 157.702 182.4C158.476 183.2 159.396 183.827 160.462 184.28C161.556 184.733 162.769 184.96 164.102 184.96C165.436 184.96 166.636 184.733 167.702 184.28C168.796 183.827 169.729 183.2 170.502 182.4C171.276 181.573 171.862 180.613 172.262 179.52C172.689 178.4 172.902 177.173 172.902 175.84C172.902 174.533 172.689 173.32 172.262 172.2C171.862 171.08 171.276 170.12 170.502 169.32C169.729 168.493 168.796 167.853 167.702 167.4C166.636 166.947 165.436 166.72 164.102 166.72C162.769 166.72 161.556 166.947 160.462 167.4C159.396 167.853 158.476 168.493 157.702 169.32C156.929 170.12 156.329 171.08 155.902 172.2C155.502 173.32 155.302 174.533 155.302 175.84ZM182.119 161.68H193.079C194.519 161.68 195.879 161.827 197.159 162.12C198.466 162.387 199.599 162.853 200.559 163.52C201.546 164.16 202.319 165.04 202.879 166.16C203.466 167.253 203.759 168.627 203.759 170.28C203.759 172.28 203.239 173.987 202.199 175.4C201.159 176.787 199.639 177.667 197.639 178.04L204.839 190H197.359L191.439 178.68H188.359V190H182.119V161.68ZM188.359 173.4H192.039C192.599 173.4 193.186 173.387 193.799 173.36C194.439 173.307 195.013 173.187 195.519 173C196.026 172.787 196.439 172.467 196.759 172.04C197.106 171.613 197.279 171.013 197.279 170.24C197.279 169.52 197.133 168.947 196.839 168.52C196.546 168.093 196.173 167.773 195.719 167.56C195.266 167.32 194.746 167.16 194.159 167.08C193.573 167 192.999 166.96 192.439 166.96H188.359V173.4ZM206.552 161.68H215.992L222.512 180.16H222.592L229.152 161.68H238.552V190H232.312V168.28H232.232L224.792 190H220.032L212.872 168.28H212.792V190H206.552V161.68ZM252.142 161.68H257.302L269.622 190H262.582L260.142 184H249.142L246.782 190H239.902L252.142 161.68ZM254.542 169.92L251.102 178.72H258.022L254.542 169.92ZM289.486 169.04C288.872 168.293 288.112 167.72 287.206 167.32C286.326 166.92 285.299 166.72 284.126 166.72C282.952 166.72 281.859 166.947 280.846 167.4C279.859 167.853 278.992 168.493 278.246 169.32C277.526 170.12 276.952 171.08 276.526 172.2C276.126 173.32 275.926 174.533 275.926 175.84C275.926 177.173 276.126 178.4 276.526 179.52C276.952 180.613 277.526 181.573 278.246 182.4C278.966 183.2 279.806 183.827 280.766 184.28C281.752 184.733 282.806 184.96 283.926 184.96C285.206 184.96 286.339 184.693 287.326 184.16C288.312 183.627 289.126 182.88 289.766 181.92L294.966 185.8C293.766 187.48 292.246 188.72 290.406 189.52C288.566 190.32 286.672 190.72 284.726 190.72C282.512 190.72 280.472 190.373 278.606 189.68C276.739 188.987 275.126 188 273.766 186.72C272.406 185.413 271.339 183.84 270.566 182C269.819 180.16 269.446 178.107 269.446 175.84C269.446 173.573 269.819 171.52 270.566 169.68C271.339 167.84 272.406 166.28 273.766 165C275.126 163.693 276.739 162.693 278.606 162C280.472 161.307 282.512 160.96 284.726 160.96C285.526 160.96 286.352 161.04 287.206 161.2C288.086 161.333 288.939 161.56 289.766 161.88C290.619 162.2 291.432 162.627 292.206 163.16C292.979 163.693 293.672 164.347 294.286 165.12L289.486 169.04ZM296.764 161.68H303.004V190H296.764V161.68ZM305.656 175.84C305.656 173.573 306.029 171.52 306.776 169.68C307.549 167.84 308.616 166.28 309.976 165C311.336 163.693 312.949 162.693 314.816 162C316.683 161.307 318.723 160.96 320.936 160.96C323.149 160.96 325.189 161.307 327.056 162C328.923 162.693 330.536 163.693 331.896 165C333.256 166.28 334.309 167.84 335.056 169.68C335.829 171.52 336.216 173.573 336.216 175.84C336.216 178.107 335.829 180.16 335.056 182C334.309 183.84 333.256 185.413 331.896 186.72C330.536 188 328.923 188.987 327.056 189.68C325.189 190.373 323.149 190.72 320.936 190.72C318.723 190.72 316.683 190.373 314.816 189.68C312.949 188.987 311.336 188 309.976 186.72C308.616 185.413 307.549 183.84 306.776 182C306.029 180.16 305.656 178.107 305.656 175.84ZM312.136 175.84C312.136 177.173 312.336 178.4 312.736 179.52C313.163 180.613 313.763 181.573 314.536 182.4C315.309 183.2 316.229 183.827 317.296 184.28C318.389 184.733 319.603 184.96 320.936 184.96C322.269 184.96 323.469 184.733 324.536 184.28C325.629 183.827 326.563 183.2 327.336 182.4C328.109 181.573 328.696 180.613 329.096 179.52C329.523 178.4 329.736 177.173 329.736 175.84C329.736 174.533 329.523 173.32 329.096 172.2C328.696 171.08 328.109 170.12 327.336 169.32C326.563 168.493 325.629 167.853 324.536 167.4C323.469 166.947 322.269 166.72 320.936 166.72C319.603 166.72 318.389 166.947 317.296 167.4C316.229 167.853 315.309 168.493 314.536 169.32C313.763 170.12 313.163 171.08 312.736 172.2C312.336 173.32 312.136 174.533 312.136 175.84ZM320.976 153.84H329.136L322.216 159.6H316.936L320.976 153.84ZM338.953 161.68H347.433L359.473 181.36H359.553V161.68H365.793V190H357.633L345.273 169.84H345.193V190H338.953V161.68ZM380.397 161.68H389.757C392.024 161.68 394.171 161.933 396.197 162.44C398.251 162.947 400.037 163.773 401.557 164.92C403.077 166.04 404.277 167.507 405.157 169.32C406.064 171.133 406.517 173.333 406.517 175.92C406.517 178.213 406.077 180.24 405.197 182C404.344 183.733 403.184 185.2 401.717 186.4C400.251 187.573 398.557 188.467 396.637 189.08C394.717 189.693 392.704 190 390.597 190H380.397V161.68ZM386.637 184.24H389.877C391.317 184.24 392.651 184.093 393.877 183.8C395.131 183.507 396.211 183.027 397.117 182.36C398.024 181.667 398.731 180.773 399.237 179.68C399.771 178.56 400.037 177.2 400.037 175.6C400.037 174.213 399.771 173.013 399.237 172C398.731 170.96 398.037 170.107 397.157 169.44C396.277 168.773 395.237 168.28 394.037 167.96C392.864 167.613 391.624 167.44 390.317 167.44H386.637V184.24ZM409.485 161.68H428.725V167.44H415.725V172.72H428.005V178.48H415.725V184.24H429.445V190H409.485V161.68ZM440.467 161.68H447.587L454.587 180.24H454.667L461.787 161.68H468.467L456.787 190H451.787L440.467 161.68ZM468.407 175.84C468.407 173.573 468.78 171.52 469.527 169.68C470.3 167.84 471.367 166.28 472.727 165C474.087 163.693 475.7 162.693 477.567 162C479.434 161.307 481.474 160.96 483.687 160.96C485.9 160.96 487.94 161.307 489.807 162C491.674 162.693 493.287 163.693 494.647 165C496.007 166.28 497.06 167.84 497.807 169.68C498.58 171.52 498.967 173.573 498.967 175.84C498.967 178.107 498.58 180.16 497.807 182C497.06 183.84 496.007 185.413 494.647 186.72C493.287 188 491.674 188.987 489.807 189.68C487.94 190.373 485.9 190.72 483.687 190.72C481.474 190.72 479.434 190.373 477.567 189.68C475.7 188.987 474.087 188 472.727 186.72C471.367 185.413 470.3 183.84 469.527 182C468.78 180.16 468.407 178.107 468.407 175.84ZM474.887 175.84C474.887 177.173 475.087 178.4 475.487 179.52C475.914 180.613 476.514 181.573 477.287 182.4C478.06 183.2 478.98 183.827 480.047 184.28C481.14 184.733 482.354 184.96 483.687 184.96C485.02 184.96 486.22 184.733 487.287 184.28C488.38 183.827 489.314 183.2 490.087 182.4C490.86 181.573 491.447 180.613 491.847 179.52C492.274 178.4 492.487 177.173 492.487 175.84C492.487 174.533 492.274 173.32 491.847 172.2C491.447 171.08 490.86 170.12 490.087 169.32C489.314 168.493 488.38 167.853 487.287 167.4C486.22 166.947 485.02 166.72 483.687 166.72C482.354 166.72 481.14 166.947 480.047 167.4C478.98 167.853 478.06 168.493 477.287 169.32C476.514 170.12 475.914 171.08 475.487 172.2C475.087 173.32 474.887 174.533 474.887 175.84ZM507.184 167.2H499.104V161.68H521.504V167.2H513.424V190H507.184V167.2ZM528.816 161.68H533.976L546.296 190H539.256L536.816 184H525.816L523.456 190H516.576L528.816 161.68ZM531.216 169.92L527.776 178.72H534.696L531.216 169.92ZM566.16 169.04C565.547 168.293 564.787 167.72 563.88 167.32C563 166.92 561.974 166.72 560.8 166.72C559.627 166.72 558.534 166.947 557.52 167.4C556.534 167.853 555.667 168.493 554.92 169.32C554.2 170.12 553.627 171.08 553.2 172.2C552.8 173.32 552.6 174.533 552.6 175.84C552.6 177.173 552.8 178.4 553.2 179.52C553.627 180.613 554.2 181.573 554.92 182.4C555.64 183.2 556.48 183.827 557.44 184.28C558.427 184.733 559.48 184.96 560.6 184.96C561.88 184.96 563.014 184.693 564 184.16C564.987 183.627 565.8 182.88 566.441 181.92L571.641 185.8C570.44 187.48 568.92 188.72 567.08 189.52C565.24 190.32 563.347 190.72 561.4 190.72C559.187 190.72 557.147 190.373 555.28 189.68C553.414 188.987 551.8 188 550.44 186.72C549.08 185.413 548.014 183.84 547.24 182C546.494 180.16 546.12 178.107 546.12 175.84C546.12 173.573 546.494 171.52 547.24 169.68C548.014 167.84 549.08 166.28 550.44 165C551.8 163.693 553.414 162.693 555.28 162C557.147 161.307 559.187 160.96 561.4 160.96C562.2 160.96 563.027 161.04 563.88 161.2C564.76 161.333 565.614 161.56 566.441 161.88C567.294 162.2 568.107 162.627 568.88 163.16C569.654 163.693 570.347 164.347 570.96 165.12L566.16 169.04ZM573.439 161.68H579.679V190H573.439V161.68ZM582.331 175.84C582.331 173.573 582.704 171.52 583.451 169.68C584.224 167.84 585.291 166.28 586.651 165C588.011 163.693 589.624 162.693 591.491 162C593.357 161.307 595.397 160.96 597.611 160.96C599.824 160.96 601.864 161.307 603.731 162C605.597 162.693 607.211 163.693 608.571 165C609.931 166.28 610.984 167.84 611.731 169.68C612.504 171.52 612.891 173.573 612.891 175.84C612.891 178.107 612.504 180.16 611.731 182C610.984 183.84 609.931 185.413 608.571 186.72C607.211 188 605.597 188.987 603.731 189.68C601.864 190.373 599.824 190.72 597.611 190.72C595.397 190.72 593.357 190.373 591.491 189.68C589.624 188.987 588.011 188 586.651 186.72C585.291 185.413 584.224 183.84 583.451 182C582.704 180.16 582.331 178.107 582.331 175.84ZM588.811 175.84C588.811 177.173 589.011 178.4 589.411 179.52C589.837 180.613 590.437 181.573 591.211 182.4C591.984 183.2 592.904 183.827 593.971 184.28C595.064 184.733 596.277 184.96 597.611 184.96C598.944 184.96 600.144 184.733 601.211 184.28C602.304 183.827 603.237 183.2 604.011 182.4C604.784 181.573 605.371 180.613 605.771 179.52C606.197 178.4 606.411 177.173 606.411 175.84C606.411 174.533 606.197 173.32 605.771 172.2C605.371 171.08 604.784 170.12 604.011 169.32C603.237 168.493 602.304 167.853 601.211 167.4C600.144 166.947 598.944 166.72 597.611 166.72C596.277 166.72 595.064 166.947 593.971 167.4C592.904 167.853 591.984 168.493 591.211 169.32C590.437 170.12 589.837 171.08 589.411 172.2C589.011 173.32 588.811 174.533 588.811 175.84ZM597.651 153.84H605.811L598.891 159.6H593.611L597.651 153.84ZM615.628 161.68H624.108L636.148 181.36H636.228V161.68H642.468V190H634.308L621.948 169.84H621.868V190H615.628V161.68ZM657.072 161.68H667.592C669.059 161.68 670.445 161.813 671.752 162.08C673.059 162.347 674.192 162.813 675.152 163.48C676.139 164.12 676.912 165 677.472 166.12C678.059 167.213 678.352 168.6 678.352 170.28C678.352 171.933 678.085 173.32 677.552 174.44C677.019 175.56 676.285 176.453 675.352 177.12C674.419 177.787 673.312 178.267 672.032 178.56C670.752 178.827 669.365 178.96 667.872 178.96H663.312V190H657.072V161.68ZM663.312 173.68H667.472C668.032 173.68 668.565 173.627 669.072 173.52C669.605 173.413 670.072 173.24 670.472 173C670.899 172.733 671.232 172.387 671.472 171.96C671.739 171.507 671.872 170.947 671.872 170.28C671.872 169.56 671.699 168.987 671.352 168.56C671.032 168.107 670.605 167.76 670.072 167.52C669.565 167.28 668.992 167.133 668.352 167.08C667.712 167 667.099 166.96 666.512 166.96H663.312V173.68ZM687.114 161.68H692.274L704.594 190H697.554L695.114 184H684.114L681.754 190H674.874L687.114 161.68ZM689.514 169.92L686.074 178.72H692.994L689.514 169.92ZM705.938 161.68H716.898C718.338 161.68 719.698 161.827 720.978 162.12C722.285 162.387 723.418 162.853 724.378 163.52C725.365 164.16 726.138 165.04 726.698 166.16C727.285 167.253 727.578 168.627 727.578 170.28C727.578 172.28 727.058 173.987 726.018 175.4C724.978 176.787 723.458 177.667 721.458 178.04L728.658 190H721.178L715.258 178.68H712.178V190H705.938V161.68ZM712.178 173.4H715.858C716.418 173.4 717.005 173.387 717.618 173.36C718.258 173.307 718.832 173.187 719.338 173C719.845 172.787 720.258 172.467 720.578 172.04C720.925 171.613 721.098 171.013 721.098 170.24C721.098 169.52 720.952 168.947 720.658 168.52C720.365 168.093 719.992 167.773 719.538 167.56C719.085 167.32 718.565 167.16 717.978 167.08C717.392 167 716.818 166.96 716.258 166.96H712.178V173.4ZM739.692 161.68H744.852L757.172 190H750.132L747.692 184H736.692L734.332 190H727.452L739.692 161.68ZM742.092 169.92L738.652 178.72H745.572L742.092 169.92ZM769.087 161.68H775.327V184.24H786.887V190H769.087V161.68ZM787.307 175.84C787.307 173.573 787.681 171.52 788.427 169.68C789.201 167.84 790.267 166.28 791.627 165C792.987 163.693 794.601 162.693 796.467 162C798.334 161.307 800.374 160.96 802.587 160.96C804.801 160.96 806.841 161.307 808.707 162C810.574 162.693 812.187 163.693 813.547 165C814.907 166.28 815.961 167.84 816.707 169.68C817.481 171.52 817.867 173.573 817.867 175.84C817.867 178.107 817.481 180.16 816.707 182C815.961 183.84 814.907 185.413 813.547 186.72C812.187 188 810.574 188.987 808.707 189.68C806.841 190.373 804.801 190.72 802.587 190.72C800.374 190.72 798.334 190.373 796.467 189.68C794.601 188.987 792.987 188 791.627 186.72C790.267 185.413 789.201 183.84 788.427 182C787.681 180.16 787.307 178.107 787.307 175.84ZM793.787 175.84C793.787 177.173 793.987 178.4 794.387 179.52C794.814 180.613 795.414 181.573 796.187 182.4C796.961 183.2 797.881 183.827 798.947 184.28C800.041 184.733 801.254 184.96 802.587 184.96C803.921 184.96 805.121 184.733 806.187 184.28C807.281 183.827 808.214 183.2 808.987 182.4C809.761 181.573 810.347 180.613 810.747 179.52C811.174 178.4 811.387 177.173 811.387 175.84C811.387 174.533 811.174 173.32 810.747 172.2C810.347 171.08 809.761 170.12 808.987 169.32C808.214 168.493 807.281 167.853 806.187 167.4C805.121 166.947 803.921 166.72 802.587 166.72C801.254 166.72 800.041 166.947 798.947 167.4C797.881 167.853 796.961 168.493 796.187 169.32C795.414 170.12 794.814 171.08 794.387 172.2C793.987 173.32 793.787 174.533 793.787 175.84ZM834.604 168.6C834.098 167.96 833.404 167.493 832.524 167.2C831.671 166.88 830.858 166.72 830.084 166.72C829.631 166.72 829.164 166.773 828.684 166.88C828.204 166.987 827.751 167.16 827.324 167.4C826.898 167.613 826.551 167.907 826.284 168.28C826.018 168.653 825.884 169.107 825.884 169.64C825.884 170.493 826.204 171.147 826.844 171.6C827.484 172.053 828.284 172.44 829.244 172.76C830.231 173.08 831.284 173.4 832.404 173.72C833.524 174.04 834.564 174.493 835.524 175.08C836.511 175.667 837.324 176.453 837.964 177.44C838.604 178.427 838.924 179.747 838.924 181.4C838.924 182.973 838.631 184.347 838.044 185.52C837.458 186.693 836.658 187.667 835.644 188.44C834.658 189.213 833.498 189.787 832.164 190.16C830.858 190.533 829.471 190.72 828.004 190.72C826.164 190.72 824.458 190.44 822.884 189.88C821.311 189.32 819.844 188.413 818.484 187.16L822.924 182.28C823.564 183.133 824.364 183.8 825.324 184.28C826.311 184.733 827.324 184.96 828.364 184.96C828.871 184.96 829.378 184.907 829.884 184.8C830.418 184.667 830.884 184.48 831.284 184.24C831.711 184 832.044 183.693 832.284 183.32C832.551 182.947 832.684 182.507 832.684 182C832.684 181.147 832.351 180.48 831.684 180C831.044 179.493 830.231 179.067 829.244 178.72C828.258 178.373 827.191 178.027 826.044 177.68C824.898 177.333 823.831 176.867 822.844 176.28C821.858 175.693 821.031 174.92 820.364 173.96C819.724 173 819.404 171.733 819.404 170.16C819.404 168.64 819.698 167.307 820.284 166.16C820.898 165.013 821.698 164.053 822.684 163.28C823.698 162.507 824.858 161.933 826.164 161.56C827.471 161.16 828.818 160.96 830.204 160.96C831.804 160.96 833.351 161.187 834.844 161.64C836.338 162.093 837.684 162.853 838.884 163.92L834.604 168.6ZM187.529 201.68H198.489C199.929 201.68 201.289 201.827 202.569 202.12C203.876 202.387 205.009 202.853 205.969 203.52C206.956 204.16 207.729 205.04 208.289 206.16C208.876 207.253 209.169 208.627 209.169 210.28C209.169 212.28 208.649 213.987 207.609 215.4C206.569 216.787 205.049 217.667 203.049 218.04L210.249 230H202.769L196.849 218.68H193.769V230H187.529V201.68ZM193.769 213.4H197.449C198.009 213.4 198.596 213.387 199.209 213.36C199.849 213.307 200.423 213.187 200.929 213C201.436 212.787 201.849 212.467 202.169 212.04C202.516 211.613 202.689 211.013 202.689 210.24C202.689 209.52 202.543 208.947 202.249 208.52C201.956 208.093 201.583 207.773 201.129 207.56C200.676 207.32 200.156 207.16 199.569 207.08C198.983 207 198.409 206.96 197.849 206.96H193.769V213.4ZM212.203 201.68H231.443V207.44H218.443V212.72H230.723V218.48H218.443V224.24H232.163V230H212.203V201.68ZM249.654 208.6C249.147 207.96 248.454 207.493 247.574 207.2C246.72 206.88 245.907 206.72 245.134 206.72C244.68 206.72 244.214 206.773 243.734 206.88C243.254 206.987 242.8 207.16 242.374 207.4C241.947 207.613 241.6 207.907 241.334 208.28C241.067 208.653 240.934 209.107 240.934 209.64C240.934 210.493 241.254 211.147 241.894 211.6C242.534 212.053 243.334 212.44 244.294 212.76C245.28 213.08 246.334 213.4 247.454 213.72C248.574 214.04 249.614 214.493 250.574 215.08C251.56 215.667 252.374 216.453 253.014 217.44C253.654 218.427 253.974 219.747 253.974 221.4C253.974 222.973 253.68 224.347 253.094 225.52C252.507 226.693 251.707 227.667 250.694 228.44C249.707 229.213 248.547 229.787 247.214 230.16C245.907 230.533 244.52 230.72 243.054 230.72C241.214 230.72 239.507 230.44 237.934 229.88C236.36 229.32 234.894 228.413 233.534 227.16L237.974 222.28C238.614 223.133 239.414 223.8 240.374 224.28C241.36 224.733 242.374 224.96 243.414 224.96C243.92 224.96 244.427 224.907 244.934 224.8C245.467 224.667 245.934 224.48 246.334 224.24C246.76 224 247.094 223.693 247.334 223.32C247.6 222.947 247.734 222.507 247.734 222C247.734 221.147 247.4 220.48 246.734 220C246.094 219.493 245.28 219.067 244.294 218.72C243.307 218.373 242.24 218.027 241.094 217.68C239.947 217.333 238.88 216.867 237.894 216.28C236.907 215.693 236.08 214.92 235.414 213.96C234.774 213 234.454 211.733 234.454 210.16C234.454 208.64 234.747 207.307 235.334 206.16C235.947 205.013 236.747 204.053 237.734 203.28C238.747 202.507 239.907 201.933 241.214 201.56C242.52 201.16 243.867 200.96 245.254 200.96C246.854 200.96 248.4 201.187 249.894 201.64C251.387 202.093 252.734 202.853 253.934 203.92L249.654 208.6ZM257.038 201.68H263.278V230H257.038V201.68ZM267.45 201.68H276.81C279.076 201.68 281.223 201.933 283.25 202.44C285.303 202.947 287.09 203.773 288.61 204.92C290.13 206.04 291.33 207.507 292.21 209.32C293.116 211.133 293.57 213.333 293.57 215.92C293.57 218.213 293.13 220.24 292.25 222C291.396 223.733 290.236 225.2 288.77 226.4C287.303 227.573 285.61 228.467 283.69 229.08C281.77 229.693 279.756 230 277.65 230H267.45V201.68ZM273.69 224.24H276.93C278.37 224.24 279.703 224.093 280.93 223.8C282.183 223.507 283.263 223.027 284.17 222.36C285.076 221.667 285.783 220.773 286.29 219.68C286.823 218.56 287.09 217.2 287.09 215.6C287.09 214.213 286.823 213.013 286.29 212C285.783 210.96 285.09 210.107 284.21 209.44C283.33 208.773 282.29 208.28 281.09 207.96C279.916 207.613 278.676 207.44 277.37 207.44H273.69V224.24ZM296.537 201.68H315.777V207.44H302.777V212.72H315.057V218.48H302.777V224.24H316.497V230H296.537V201.68ZM319.988 201.68H328.468L340.508 221.36H340.588V201.68H346.828V230H338.668L326.308 209.84H326.228V230H319.988V201.68ZM356.581 207.2H348.501V201.68H370.901V207.2H362.821V230H356.581V207.2ZM372.805 201.68H392.045V207.44H379.045V212.72H391.325V218.48H379.045V224.24H392.765V230H372.805V201.68ZM410.256 208.6C409.75 207.96 409.056 207.493 408.176 207.2C407.323 206.88 406.51 206.72 405.736 206.72C405.283 206.72 404.816 206.773 404.336 206.88C403.856 206.987 403.403 207.16 402.976 207.4C402.55 207.613 402.203 207.907 401.936 208.28C401.67 208.653 401.536 209.107 401.536 209.64C401.536 210.493 401.856 211.147 402.496 211.6C403.136 212.053 403.936 212.44 404.896 212.76C405.883 213.08 406.936 213.4 408.056 213.72C409.176 214.04 410.216 214.493 411.176 215.08C412.163 215.667 412.976 216.453 413.616 217.44C414.256 218.427 414.576 219.747 414.576 221.4C414.576 222.973 414.283 224.347 413.696 225.52C413.11 226.693 412.31 227.667 411.296 228.44C410.31 229.213 409.15 229.787 407.816 230.16C406.51 230.533 405.123 230.72 403.656 230.72C401.816 230.72 400.11 230.44 398.536 229.88C396.963 229.32 395.496 228.413 394.136 227.16L398.576 222.28C399.216 223.133 400.016 223.8 400.976 224.28C401.963 224.733 402.976 224.96 404.016 224.96C404.523 224.96 405.03 224.907 405.536 224.8C406.07 224.667 406.536 224.48 406.936 224.24C407.363 224 407.696 223.693 407.936 223.32C408.203 222.947 408.336 222.507 408.336 222C408.336 221.147 408.003 220.48 407.336 220C406.696 219.493 405.883 219.067 404.896 218.72C403.91 218.373 402.843 218.027 401.696 217.68C400.55 217.333 399.483 216.867 398.496 216.28C397.51 215.693 396.683 214.92 396.016 213.96C395.376 213 395.056 211.733 395.056 210.16C395.056 208.64 395.35 207.307 395.936 206.16C396.55 205.013 397.35 204.053 398.336 203.28C399.35 202.507 400.51 201.933 401.816 201.56C403.123 201.16 404.47 200.96 405.856 200.96C407.456 200.96 409.003 201.187 410.496 201.64C411.99 202.093 413.336 202.853 414.536 203.92L410.256 208.6ZM428.052 201.68H437.412C439.679 201.68 441.826 201.933 443.852 202.44C445.906 202.947 447.692 203.773 449.212 204.92C450.732 206.04 451.932 207.507 452.812 209.32C453.719 211.133 454.172 213.333 454.172 215.92C454.172 218.213 453.732 220.24 452.852 222C451.999 223.733 450.839 225.2 449.372 226.4C447.906 227.573 446.212 228.467 444.292 229.08C442.372 229.693 440.359 230 438.252 230H428.052V201.68ZM434.292 224.24H437.532C438.972 224.24 440.306 224.093 441.532 223.8C442.786 223.507 443.866 223.027 444.772 222.36C445.679 221.667 446.386 220.773 446.892 219.68C447.426 218.56 447.692 217.2 447.692 215.6C447.692 214.213 447.426 213.013 446.892 212C446.386 210.96 445.692 210.107 444.812 209.44C443.932 208.773 442.892 208.28 441.692 207.96C440.519 207.613 439.279 207.44 437.972 207.44H434.292V224.24ZM457.14 201.68H476.38V207.44H463.38V212.72H475.66V218.48H463.38V224.24H477.1V230H457.14V201.68ZM490.922 201.68H501.442C502.909 201.68 504.295 201.813 505.602 202.08C506.909 202.347 508.042 202.813 509.002 203.48C509.989 204.12 510.762 205 511.322 206.12C511.909 207.213 512.202 208.6 512.202 210.28C512.202 211.933 511.935 213.32 511.402 214.44C510.869 215.56 510.135 216.453 509.202 217.12C508.269 217.787 507.162 218.267 505.882 218.56C504.602 218.827 503.215 218.96 501.722 218.96H497.162V230H490.922V201.68ZM497.162 213.68H501.322C501.882 213.68 502.415 213.627 502.922 213.52C503.455 213.413 503.922 213.24 504.322 213C504.749 212.733 505.082 212.387 505.322 211.96C505.589 211.507 505.722 210.947 505.722 210.28C505.722 209.56 505.549 208.987 505.202 208.56C504.882 208.107 504.455 207.76 503.922 207.52C503.415 207.28 502.842 207.133 502.202 207.08C501.562 207 500.949 206.96 500.362 206.96H497.162V213.68ZM514.853 201.68H534.093V207.44H521.093V212.72H533.373V218.48H521.093V224.24H534.813V230H514.853V201.68ZM538.304 201.68H546.784L558.824 221.36H558.904V201.68H565.144V230H556.984L544.624 209.84H544.544V230H538.304V201.68ZM583.417 208.6C582.91 207.96 582.217 207.493 581.337 207.2C580.484 206.88 579.67 206.72 578.897 206.72C578.444 206.72 577.977 206.773 577.497 206.88C577.017 206.987 576.564 207.16 576.137 207.4C575.71 207.613 575.364 207.907 575.097 208.28C574.83 208.653 574.697 209.107 574.697 209.64C574.697 210.493 575.017 211.147 575.657 211.6C576.297 212.053 577.097 212.44 578.057 212.76C579.044 213.08 580.097 213.4 581.217 213.72C582.337 214.04 583.377 214.493 584.337 215.08C585.324 215.667 586.137 216.453 586.777 217.44C587.417 218.427 587.737 219.747 587.737 221.4C587.737 222.973 587.444 224.347 586.857 225.52C586.27 226.693 585.47 227.667 584.457 228.44C583.47 229.213 582.31 229.787 580.977 230.16C579.67 230.533 578.284 230.72 576.817 230.72C574.977 230.72 573.27 230.44 571.697 229.88C570.124 229.32 568.657 228.413 567.297 227.16L571.737 222.28C572.377 223.133 573.177 223.8 574.137 224.28C575.124 224.733 576.137 224.96 577.177 224.96C577.684 224.96 578.19 224.907 578.697 224.8C579.23 224.667 579.697 224.48 580.097 224.24C580.524 224 580.857 223.693 581.097 223.32C581.364 222.947 581.497 222.507 581.497 222C581.497 221.147 581.164 220.48 580.497 220C579.857 219.493 579.044 219.067 578.057 218.72C577.07 218.373 576.004 218.027 574.857 217.68C573.71 217.333 572.644 216.867 571.657 216.28C570.67 215.693 569.844 214.92 569.177 213.96C568.537 213 568.217 211.733 568.217 210.16C568.217 208.64 568.51 207.307 569.097 206.16C569.71 205.013 570.51 204.053 571.497 203.28C572.51 202.507 573.67 201.933 574.977 201.56C576.284 201.16 577.63 200.96 579.017 200.96C580.617 200.96 582.164 201.187 583.657 201.64C585.15 202.093 586.497 202.853 587.697 203.92L583.417 208.6ZM590.801 201.68H597.041V230H590.801V201.68ZM601.453 201.68H607.693V224.24H619.253V230H601.453V201.68ZM614.721 201.68H621.841L628.841 220.24H628.921L636.041 201.68H642.721L631.041 230H626.041L614.721 201.68ZM651.314 201.68H656.474L668.794 230H661.754L659.314 224H648.314L645.954 230H639.074L651.314 201.68ZM653.714 209.92L650.274 218.72H657.194L653.714 209.92ZM670.138 201.68H678.618L690.658 221.36H690.738V201.68H696.978V230H688.818L676.458 209.84H676.378V230H670.138V201.68ZM701.17 201.68H707.41V230H701.17V201.68ZM720.902 201.68H726.062L738.382 230H731.342L728.902 224H717.902L715.542 230H708.662L720.902 201.68ZM723.302 209.92L719.862 218.72H726.782L723.302 209.92Z" fill="#20195B"/>
<path fill-rule="evenodd" clip-rule="evenodd" d="M34.4262 10V11.1027V13.5881V14.7958V14.9708V17.6838V21.3419H34.9165H35.6066L36.2241 21.3244L36.3149 21.3419L37.4954 21.3244H38.1128L38.7485 21.3419H40.0015L40.6372 21.3594H41.3091H42.5259H43.1615H43.779H44.4146H45.0502L46.3033 21.3419H46.9571H47.5746H48.2102H48.8458H49.4633H50.0989H50.7345L51.3702 21.3244H52.0058L52.6414 21.3069H53.2044H53.2589H53.8945H54.6028H55.2566H55.7651H56.546H57.0182L57.3087 21.3244H59.0158L59.7241 21.3419H60.2508L62.3029 21.3769L62.9567 21.3944H63.6105L64.8636 21.3769H65.4992H66.1167H66.9521L67.4061 21.3594L69.2948 21.3244L70.5479 21.3069H71.2017L71.8192 21.2894H72.4366H73.6897H74.3072L75.5603 21.3069L76.7952 21.2894L78.0483 21.3069H78.6658L80.5363 21.3244H81.8076H82.4432H83.7145L84.9494 21.3069H85.5305L85.8574 21.2894H86.2206L86.8381 21.2719L87.4556 21.2894H88.0912H88.7087L91.1967 21.3244L91.8141 21.3419L93.0672 21.3594H94.3385H94.956H95.5916H96.2272H96.9536H97.4803H98.1341H98.7697L99.3145 21.3419H100.041H100.677L101.948 21.3244L102.583 21.3069H103.219L103.837 21.3244H104.436L105.725 21.3069L106.343 21.2894H107.614H110.138H111.41L112.862 21.3069H115.768H117.039H117.657H118.293H119.546L120.181 21.2894H120.817L122.07 21.2719H122.488H122.706L123.959 21.2544H124.594L125.23 21.2369H125.847L127.082 21.2194L128.335 21.2019H128.953L130.224 21.2194H131.641L132.694 21.2369H133.929L134.546 21.2544L135.799 21.2719L137.053 21.2894H137.761L140.194 21.3244L141.466 21.3419H142.101L143.445 21.3594H144.026H146.587H147.858H148.494H149.129L150.419 21.3419H151.672H152.326H152.943L153.833 21.3244H154.832H156.103L156.721 21.3419H157.084H159.263L159.935 21.3594H161.152L163.059 21.3769H164.058L165.547 21.3594H166.854L168.398 21.3419L170.141 21.3244H170.559H171.994H172.593H172.92H173.919H174.282H175.354L176.389 21.3069L176.57 21.4119L176.697 21.4644L176.843 21.4994L176.988 21.5869L177.024 21.6744L177.079 21.7795L177.115 21.8495L177.097 21.972L177.043 22.112L177.006 22.2345L176.952 22.3396V22.4096L177.043 22.5146L177.151 22.5321L177.369 22.6021L177.424 22.6546L177.46 22.7421L177.587 22.8821L177.678 22.9347L177.714 23.0922L177.751 23.2147L177.823 23.2672L177.932 23.3897L178.005 23.4247H178.078L178.168 23.4597H178.241L178.277 23.4422L178.259 23.3197V23.2672L178.296 23.2322L178.35 23.1972L178.495 23.1797L178.532 23.1972L178.586 23.2672V23.4947L178.604 23.5648L178.677 23.7048L178.786 23.7223L178.913 23.8098L179.004 23.8448V23.9323L179.058 24.0898V24.2124L179.077 24.4224L179.058 24.5099L179.113 24.6324L179.149 24.7375L179.258 24.9125L179.349 25.1225L179.367 25.245V25.3326L179.349 25.4026L179.204 25.5776L179.185 25.6301L179.24 25.9977L179.276 26.0327L179.512 26.1027L179.567 26.1377L179.621 26.2077L179.676 26.4352V26.5052L179.567 26.5928L179.476 26.6803V26.7503L179.531 26.9078L179.585 26.9778L179.676 27.0478H179.93L180.148 26.8378H180.202L180.257 26.8728L180.348 26.9603L180.42 27.0653L180.529 27.1704H180.602L180.693 27.2404H180.784L180.911 27.1003L181.038 26.8378L181.219 26.7503L181.401 26.7328L181.456 26.7503L181.565 26.7678L181.637 26.7853L181.746 26.8553L181.819 26.9428L181.855 27.0303L181.928 27.1179L182.019 27.1354L182.091 27.0828L182.128 26.9953L182.164 26.8903L182.2 26.7678L182.291 26.6278L182.327 26.6103L182.436 26.6278L182.527 26.6978L182.563 26.7678V26.8378L182.545 27.0478V27.1179L182.563 27.2404L182.654 27.4329L182.709 27.5204L182.763 27.5554L182.89 27.6079L183.017 27.6254L183.09 27.6079L183.253 27.5204L183.417 27.4679L183.49 27.4854L183.526 27.5379L183.689 27.6779L183.744 27.748L183.78 27.7655H183.907L184.071 27.713H184.18L184.234 27.748L184.307 27.8355L184.325 27.8705L184.343 27.958V28.133L184.289 28.3431L184.27 28.4831L184.325 28.6581L184.379 28.7106L184.488 28.7456L184.779 28.8856L184.87 28.9907L184.961 29.0782L185.07 29.1482L185.106 29.1657L185.233 29.1482L185.269 29.1307L185.415 29.0257L185.56 29.0082L185.651 29.0432L185.687 29.1132V29.2007L185.633 29.4107L185.56 29.6383L185.505 29.7258L185.378 29.7783H185.306L185.16 29.7433H185.088L185.015 29.7783L184.961 29.8308L184.906 29.9358L184.761 30.0758L184.706 30.1634L184.688 30.2159L184.634 30.4434V30.6009L184.616 30.6709V30.776L184.652 30.846L184.706 30.8985L184.761 30.9335L184.942 30.9685H184.997L185.142 30.9335L185.451 30.8285H185.505H185.578L185.651 30.951L185.778 31.0035L185.887 31.021L186.032 31.126L186.105 31.266L186.177 31.4586L186.25 31.5811L186.268 31.7036L186.286 31.9312L186.268 32.0187L186.232 32.2637L186.214 32.3687L186.25 32.5613L186.268 32.7013L186.304 32.8763L186.323 32.9813L186.377 33.1389V33.2089L186.359 33.2964L186.341 33.3314H186.232L186.105 33.2789L185.941 33.2614L185.832 33.2964L185.778 33.3489V33.4889L185.814 33.5764L185.869 33.6464L185.996 33.7515L186.068 33.839L186.159 33.9965L186.232 34.1365L186.286 34.2765L186.304 34.4341L186.341 34.5566L186.323 34.6616L186.232 34.7666L186.105 34.8716L186.087 34.9067L186.068 34.9767L186.087 35.0467L186.123 35.0992L186.214 35.1167L186.25 35.1517L186.286 35.2392L186.377 35.3792L186.395 35.4842L186.413 35.7118L186.395 35.8868L186.413 35.9918L186.45 36.0443V36.0968L186.395 36.1669V36.2544L186.413 36.3944V36.4994L186.432 36.6569L186.522 36.867L186.577 36.9895L186.559 37.077V37.217L186.541 37.287L186.486 37.3221L186.413 37.3046L186.323 37.217L186.286 37.1995H186.177L186.068 37.2345L185.996 37.3046L186.014 37.3921L186.068 37.4971L186.032 37.5496L185.923 37.5846L185.76 37.5496L185.669 37.5846L185.578 37.6371V37.7246L185.76 37.9172L185.832 37.9872L185.941 38.1797L186.05 38.3547L186.141 38.4072L186.286 38.4772L186.486 38.6698L186.522 38.7573L186.577 39.0548L186.686 39.2299L186.795 39.3349L186.922 39.4224L186.976 39.4399H187.049L187.104 39.4749L187.194 39.6674L187.394 39.965L187.467 40.1925V40.245L187.449 40.315L187.412 40.3501L187.249 40.4026L187.194 40.4726L187.176 40.5251L187.194 40.6651L187.249 40.7351L187.303 40.7701L187.449 40.7876L187.503 40.8226L187.685 40.9452L187.757 41.0152L187.866 41.1202L187.939 41.2602L187.957 41.3127V41.4177L187.903 41.5228L187.866 41.6628L187.884 41.7853L187.993 41.8203L188.193 41.7503H188.393L188.447 41.7853L188.502 41.8378L188.556 42.0828V42.1879V42.2579L188.484 42.4854L188.466 42.5729L188.447 42.713L188.466 42.8005L188.52 42.9055L188.575 42.958L188.738 42.993L188.92 43.0455L189.119 43.0805L189.374 43.098L189.483 43.028L189.664 42.923L189.719 42.8355L189.773 42.8005H189.864L190.1 42.8355L190.155 42.853L190.354 43.0105L190.409 43.063L190.5 43.0805H190.663L190.79 43.1155L190.863 43.1855L190.917 43.2555L190.954 43.4481V43.5706L190.99 43.7281L191.081 43.7806L191.371 43.8506L191.498 43.9382L191.553 44.0432L191.571 44.1132L191.553 44.1832L191.426 44.2882L191.371 44.3582L191.335 44.5158V44.6033L191.353 44.6208L191.444 44.6733L191.553 44.6908L191.862 44.6208L191.971 44.5858L192.025 44.5508L192.189 44.5158L192.316 44.4457L192.388 44.4282H192.552L192.624 44.4457L192.733 44.4982L192.897 44.6208L192.969 44.7083L193.133 44.8483L193.187 44.9008L193.296 44.9883L193.405 45.0058L193.514 44.9883L193.605 44.9358L193.66 44.8133L193.696 44.7433L193.805 44.6208L193.986 44.5158L194.041 44.4807L194.186 44.4982L194.259 44.5158L194.386 44.6733L194.422 44.7783L194.44 44.9183L194.459 45.0058L194.549 45.2159L194.64 45.3209L194.749 45.3734L194.84 45.3559L194.949 45.3384L195.022 45.3034L195.149 45.2334L195.276 45.1809H195.385L195.512 45.2509L195.657 45.3034H195.803L195.93 45.1984L196.02 45.1109L196.238 45.0058L196.347 44.9708L196.42 44.9883L196.475 45.0583L196.547 45.1984V45.3209L196.475 45.5659L196.42 45.706L196.347 45.7935L196.311 45.9335L196.347 46.056L196.42 46.2135L196.493 46.3361L196.583 46.3886L196.692 46.4411L196.801 46.4761L196.983 46.4936L197.146 46.5811L197.237 46.6861L197.274 46.8086L197.328 47.0012L197.383 47.1412L197.564 47.2987L197.818 47.4912L197.946 47.6138L198 47.7713V47.8588L197.946 47.9113L197.855 47.9638L197.8 48.0163L197.764 48.0688L197.709 48.1214L197.437 48.1914L197.292 48.2789L196.983 48.4539L196.783 48.5064L196.166 48.4889L196.039 48.4714L195.93 48.4889L195.857 48.5239L195.712 48.734L195.621 49.1015L195.494 49.2415L195.421 49.3116L195.33 49.3816L195.185 49.3991H194.931L194.767 49.4341L194.677 49.4691L194.604 49.5566L194.568 49.6441L194.677 49.8016L194.695 49.9417L194.64 49.9942L194.568 50.0467L194.186 50.2917L194.059 50.4842L193.932 50.5718L193.732 50.6593L193.46 50.9393L193.351 51.1494L193.315 51.2369L193.224 51.3069L193.169 51.3944L193.133 51.5519L193.06 51.6919L193.006 51.8145L192.951 51.9195V52.0245L192.969 52.0945V52.2345L192.897 52.4096L192.806 52.4446H192.661L192.588 52.5146L192.461 52.7596L192.443 52.9347L192.425 53.0222L192.298 53.2147L192.261 53.3197V53.4072L192.298 53.4597L192.461 53.5998L192.515 53.6873V53.7573L192.461 53.8798L192.279 54.1774L192.043 54.6324L191.916 54.93L191.898 55.0525L191.862 55.1925L191.789 55.3326L191.716 55.4376L191.571 55.6126L191.262 55.8751L191.226 55.9452L191.153 56.0852L191.044 56.3652L190.718 56.7503L190.536 56.9428L190.463 57.1003L190.264 57.2579L190.1 57.3279L189.864 57.3804L189.755 57.4329V57.4679L189.719 57.5029L189.682 57.5729V57.6604L189.664 57.6954L189.555 57.783L189.301 57.958L189.156 58.0805L189.083 58.098H188.956L188.865 58.1155L188.647 58.238L188.556 58.3256L188.393 58.6756L188.266 58.9907L188.248 59.0782L188.284 59.1482L188.375 59.1657L188.502 59.1482L188.556 59.1132L188.756 58.9382L188.883 58.8506L188.956 58.8331H189.01L189.065 58.9207V58.9557L189.01 59.1657L188.92 59.2707L188.811 59.3582L188.629 59.4632L188.556 59.5333L188.339 59.5508L188.121 59.6558L188.012 59.7258L187.939 59.7958L187.83 59.9183L187.776 60.0058H187.612L187.558 60.0408L187.521 60.1809L187.485 60.2509L187.43 60.4784L187.321 60.6359L187.158 60.846L187.122 60.951L187.158 61.1435L186.94 61.2135L186.65 61.4761L186.559 61.5286L186.45 61.5811L186.214 61.7386L186.05 61.7911L185.814 61.9487L185.723 62.0012L185.578 62.0887H185.378L185.306 62.1062L185.106 62.2812L184.979 62.4037L184.779 62.4912L184.507 62.5963L184.379 62.6838L184.016 62.9463L183.889 63.0338L183.78 63.1564L183.744 63.2264L183.726 63.4889L183.708 63.5939L183.617 63.734V63.7865V63.874L183.671 63.979L183.726 64.049L183.798 64.0665L183.962 64.0315H184.034L184.107 64.084L184.18 64.3115V64.3816L184.162 64.5741L184.198 64.7141L184.379 64.9242L184.561 65.2742L184.597 65.4142L184.888 65.8693L184.961 65.9568L185.179 66.1319L185.433 66.3244L185.469 66.3769L185.524 66.4994L185.542 66.6219L185.578 66.902L185.542 67.042V67.112L185.56 67.1645L185.633 67.2695L185.796 67.4271L185.905 67.5496L186.068 67.7771L186.286 68.0222L186.341 68.1622L186.359 68.3022L186.304 68.3897L186.087 68.5473L185.996 68.6523L185.941 68.7398L185.923 68.8098L185.941 68.9498L185.923 69.0198L185.887 69.0548L185.796 69.0723L185.669 69.0548L185.542 68.9673H185.451L185.07 69.0023L184.979 69.0198L184.924 69.0548L184.87 69.1599L184.852 69.2824L184.87 69.4049L184.906 69.4749L185.106 69.6499L185.124 69.6849L185.251 69.7725L185.306 69.8775V69.9475L185.269 70.07L185.179 70.175L185.142 70.28L185.088 70.3501L184.997 70.4026L184.942 70.4726L184.888 70.5076L184.779 70.6651L184.743 70.7526V71.0152L184.616 71.1902L184.488 71.3827L184.416 71.4177L184.216 71.4527L184.016 71.5578L183.962 71.6453L183.835 71.8553L183.798 71.9428L183.744 72.0303L183.671 72.0828L183.58 72.1003L183.471 72.0828L183.09 72.0303L182.927 71.9603L182.672 71.9078H182.582L182.509 71.9253L182.436 71.9603L182.382 72.0128L182.309 72.1704L182.291 72.2929L182.273 72.4854L182.2 72.5904L182.091 72.6779L181.801 72.818L181.655 72.993L181.637 73.063L181.655 73.1855L181.692 73.2555L181.982 73.5706L182.037 73.6406L182.109 73.7456V73.8681L182.019 74.0432L181.982 74.1482V74.2707L181.964 74.3232L181.801 74.4457L181.71 74.5683L181.655 74.7433L181.583 74.8658L181.565 74.9708L181.51 75.1809L181.437 75.2859L181.419 75.3734L181.401 75.4434L181.419 75.5309L181.528 75.741L181.601 75.8285L181.655 75.8985L181.819 75.951H181.873L181.964 75.9335H182.073L182.182 75.9685L182.236 76.0035L182.273 76.056L182.291 76.1435L182.255 76.2485L182.146 76.3886L182.128 76.4761L182.073 76.5286L181.91 76.5986L181.801 76.7211L181.673 76.9136L181.601 76.9662L181.619 77.0537L181.583 77.1062L181.528 77.2112L181.546 77.2987L181.655 77.3862L181.692 77.4387L181.728 77.4562L181.801 77.5438L181.837 77.6663V77.7888L181.855 77.8238V77.9288L181.91 78.2789L181.873 78.3839L181.837 78.4014H181.746L181.565 78.4539L181.528 78.4714L181.474 78.5414L181.492 78.5764L181.546 78.6989L181.637 78.804L181.673 78.9265L181.801 79.119V79.224L181.819 79.3991L181.873 79.5741V79.6791L181.837 79.7666L181.728 79.9066L181.692 80.0117V80.1342L181.746 80.1867L181.819 80.2742L181.928 80.4142L182.055 80.5192L182.109 80.5543L182.364 80.6593L182.436 80.6768H182.763L182.872 80.6418L183.017 80.5192L183.145 80.3967L183.344 80.2567L183.471 80.2217L183.653 80.2042L183.798 80.2392L184.198 80.2917L184.361 80.3617L184.779 80.5543L184.815 80.5893L184.979 80.7643L185.07 80.8868L185.16 80.9743L185.306 81.1494L185.415 81.2719L185.56 81.4119L185.778 81.5694L185.814 81.6744L185.85 81.867L185.887 82.1995V82.287L185.869 82.3921V82.5496L185.905 82.8821V83.1797L185.941 83.3197L185.996 83.7748L185.959 83.8798V84.1073L185.923 84.2299L185.796 84.4049V84.5274L185.832 84.685L185.778 84.8425L185.705 85.0175V85.1225L185.76 85.21L185.85 85.5251L185.869 85.6476L185.923 85.8051L185.905 85.8926L185.978 86.1027V86.3127L186.014 86.4527L186.068 86.5928L186.123 86.6628L186.196 86.7153L186.323 86.7678L186.432 86.7853L186.504 86.8028L186.577 86.8728L186.65 86.9778L186.94 87.1704L187.104 87.2229H187.213L187.576 87.1179L187.739 87.0653L187.884 86.9603L187.993 86.9253L188.23 86.9778L188.393 87.0653L188.502 87.1704L188.684 87.2929L188.992 87.3979L189.065 87.4504L189.138 87.5379L189.156 87.6079L189.192 87.748L189.247 87.8705L189.392 88.168L189.464 88.3256L189.501 88.4656L189.592 88.6931L189.628 88.7981L189.664 88.9206L189.737 89.1482V89.2532V89.3407L189.755 89.5858L189.81 89.7083L189.864 89.8308L189.918 89.9008L189.973 89.9708L190.118 90.0933L190.445 90.3384L190.699 90.6184L190.754 90.6534L190.917 90.7585L191.008 90.7935L191.172 90.8285L191.317 90.846L191.462 90.916L191.644 91.056L191.789 91.196L191.989 91.4061L192.08 91.4761L192.152 91.5461L192.334 91.7911L192.479 92.0537L192.552 92.2112L192.606 92.3687L192.624 92.4562L192.643 92.5087L192.733 92.7188L192.77 92.8063L192.806 92.8588L192.951 93.1914L192.988 93.2789L193.097 93.5064L193.206 93.6114L193.278 93.6639L193.46 93.734L193.66 93.839L193.732 93.874L193.769 93.944L193.841 93.9965L193.986 94.084L194.186 94.1365L194.44 94.2765L194.531 94.329L194.622 94.3465L194.695 94.3816L194.804 94.4691L195.022 94.6441L195.167 94.7491L195.33 94.8716L195.349 94.8891L195.439 95.0642L195.476 95.2042L195.548 95.3267L195.712 95.5718L195.821 95.9568L195.839 96.0268L195.912 96.1143L196.039 96.2194L196.166 96.2719L196.311 96.3069L196.384 96.3594L196.511 96.4994L196.692 96.6919L196.91 97.007L196.929 97.077L196.983 97.252V97.4096L196.929 97.6021L196.892 97.6896L196.711 97.8296L196.547 97.9872L196.402 98.1447L196.257 98.2147H196.184L196.039 98.1797H195.948L195.784 98.1972L195.712 98.2322L195.294 98.5123L195.04 98.6873L194.967 98.7223L194.895 98.7398H194.767L194.459 98.6698L194.277 98.6173L194.168 98.5472L193.968 98.4772L193.896 98.4597H193.805L193.714 98.4947L193.605 98.5823L193.551 98.6873L193.478 98.8798L193.387 99.0723L193.351 99.2299L193.315 99.3874L193.26 99.5274L193.206 99.5799L193.042 99.6849L192.933 99.7199L192.842 99.7725L192.661 99.895L192.606 99.965L192.534 100.088L192.497 100.21L192.479 100.263L192.37 100.315L192.225 100.333L191.989 100.385L191.862 100.42L191.735 100.473L191.48 100.595L191.226 100.683L191.026 100.77L190.827 100.823H190.699L190.536 100.753H190.445L190.318 100.788L190.136 100.875L189.846 101.05L189.61 101.225L189.537 101.278L189.21 101.4L188.992 101.523L188.811 101.645L188.702 101.82L188.611 101.89L188.538 101.978L187.975 102.503L187.866 102.573L187.648 102.748L187.558 102.835L187.358 102.905L187.213 102.94L187.104 102.975L186.886 103.046L186.65 103.151L186.541 103.203L186.468 103.256L186.377 103.361L186.268 103.483L186.123 103.763L186.105 103.868L186.05 104.008L185.923 104.236L185.832 104.323L185.687 104.446L185.56 104.551L185.396 104.586L185.215 104.673L185.051 104.691L184.888 104.726L184.688 104.778L184.507 104.866L184.307 104.971L184.143 105.058L183.998 105.181L183.798 105.303L183.708 105.408L183.671 105.513L183.635 105.636L183.599 105.776V105.968V106.371L183.617 106.529L183.653 106.651L183.78 107.019L183.816 107.071L183.853 107.176V107.351L183.835 107.421L183.798 107.614L183.762 107.754L183.653 107.929L183.562 108.121L183.471 108.191L183.362 108.331L183.235 108.366L183.126 108.384L182.745 108.419L182.182 108.436L182 108.454L181.891 108.489L181.782 108.559L181.692 108.629L181.546 108.804L181.401 108.874L181.165 109.049L180.911 109.259L180.765 109.329L180.42 109.469L180.021 109.574L179.785 109.627L179.767 109.487L179.73 109.452L179.621 109.399H179.403H179.167L179.04 109.382L178.968 109.329L178.641 109.347L178.622 109.364H178.568L178.55 109.329H178.495V109.382L178.405 109.347H178.296L178.168 109.294L178.078 109.277L178.06 109.242L178.023 109.259L177.914 109.242L177.878 109.207L177.914 109.137L177.878 109.014L177.842 108.979L177.878 109.102L177.842 109.242L177.805 109.347L177.66 109.417L177.605 109.364L177.533 109.189V109.224L177.624 109.434L177.515 109.487L177.388 109.539L177.333 109.504L177.297 109.592H177.242L177.151 109.627L177.061 109.697L176.952 109.749H176.897L176.788 109.837L176.752 109.784L176.697 109.837L176.643 109.819V109.872L176.679 109.924L176.607 109.959L176.443 110.047L176.407 110.012L176.389 110.082L176.207 110.204L176.062 110.274L176.08 110.292L175.935 110.397L175.898 110.379L175.862 110.449L175.662 110.589L175.626 110.642L175.59 110.624L175.571 110.694L175.481 110.764L175.408 110.834L175.335 110.799L175.299 110.869L175.226 110.834L175.154 110.852L175.226 110.957V110.974L174.972 111.132L174.918 111.079L174.954 111.149L174.736 111.272L174.573 111.359L174.591 111.412L174.536 111.394L174.464 111.429V111.482L174.391 111.517L174.355 111.499L174.228 111.412L173.992 111.272L173.737 111.114L173.465 110.974L173.192 110.852L172.92 110.729L172.757 110.677L172.339 110.537L171.758 110.379L171.467 110.309L171.177 110.257L170.868 110.222L170.559 110.187L170.269 110.169H169.742L169.288 110.204L169.052 110.222L168.616 110.292L168.362 110.327L168.089 110.397L167.726 110.484L167.599 110.519L167.145 110.659L167 110.712L166.6 110.904L166.328 111.044L166.055 111.184L165.747 111.394L165.547 111.517L165.365 111.657L165.165 111.814L164.947 112.007L164.566 112.375L164.348 112.602L164.13 112.882L163.912 113.162L163.713 113.46L163.531 113.792L163.404 114.037L163.349 114.142L163.168 114.527L163.041 114.912H162.55H161.951H160.843H159.445H158.845H158.246L157.029 114.93H156.43H153.997H153.415H152.78H152.18H151.563L150.982 114.947H150.364H149.765H149.293H148.548H147.332H146.732H144.317H143.718H143.1H141.883H140.049H138.85H138.215H137.634H137.016H134.583L130.951 114.965H130.315L129.734 114.982H129.171H128.535H126.701H126.102H125.484L124.267 115H123.069H122.469H121.235H119.418H118.801H116.985H116.513H115.823H115.169H114.551H113.952H112.735H112.118H111.537H109.103H107.886H107.269H106.651H106.052L105.453 114.982H104.236H103.619L102.42 114.965H101.784H101.185L99.369 114.947H99.1693H98.1704H97.5529L95.7369 114.93L95.0831 114.912H93.9026L91.4328 114.895L90.2886 114.912H89.6712H89.0719H88.4726H87.8733H87.2558H86.6565L86.0572 114.895H84.8223H84.223H83.0062H81.8439H80.1913H79.4104H78.9563H78.1573H77.9393H76.6681H75.9417H75.3242H75.0336H73.1994H71.2925H70.0213L69.4764 114.877H68.9316H67.9691H67.2971H66.7705H66.262H65.7172H64.9544H64.4459H63.6832H62.4119H61.2859H61.1407L60.505 114.895H59.8876H59.1793H58.1441H57.1635L55.4563 114.912L52.2782 114.93H50.4985L47.9015 114.947H46.6665H46.3941H45.2863H44.7233H43.6337L35.8064 114.965H34.3717H31.3389L29.4865 114.982L29.3957 114.965L25.4003 114.947H21.1325H20.0611H17.2825H13.7411H12.1611H10V112.095L10.0182 109.504V108.594V105.198V104.883V103.658V103.01L10 102.608L10.0182 102.188L10 101.82L10.0182 100.49L10 99.79L10.0182 99.6499V98.8798V98.5823V98.1972V96.6744V96.2369V95.6943V95.3967V93.734V93.2089V92.7538V91.7036V89.7433V89.4282L10.0545 88.7456V87.4504V87.4329V86.9428V86.8903V86.4702V86.0677V84.8425L10.0182 84.3699V84.2299V77.6138L10 68.8973L10.0182 66.9195V57.6254V55.7176V52.7596V49.014L10 48.2964V42.5729V42.1529V38.8623V27.5729V25.8051V25.175V22.2345L10.1271 22.217L10.2906 22.112L10.3451 22.0945L10.4722 22.0245L10.6175 21.937L10.6901 21.8845L10.7264 21.902L10.8172 21.832L10.9988 21.797L11.1078 21.762L11.1986 21.7095L11.2713 21.6919L11.4347 21.6219L11.5073 21.6044L11.7616 21.4819L11.8887 21.4469L11.9977 21.3944L12.2156 21.2894L12.3609 21.2019L12.488 21.1494L12.6515 21.0443L12.7423 21.0618L13.0692 20.9568L13.1418 20.9043L13.2326 20.8693L13.5413 20.7993L13.6866 20.7468L13.7774 20.7293L13.959 20.6418L14.0862 20.6068L14.2315 20.5368L14.3767 20.4492L14.4494 20.4142L14.5947 20.3267L14.7036 20.2742H14.7218L14.8489 20.2042L15.0305 20.1167H15.1213L15.3211 20.0467H15.3937L15.4845 20.0292L15.7933 19.9067L15.8478 19.8891L15.9022 19.8541L16.0838 19.8016L16.1747 19.7666L16.3563 19.6791L16.4652 19.5916L16.556 19.5566L16.7013 19.4691L16.9737 19.3466L17.1009 19.2765L17.1917 19.2415L17.3914 19.084L17.5912 18.9965L17.7183 18.9265L17.8818 18.8565L17.9362 18.804H17.9907L18.1542 18.7515L18.4266 18.5414L18.5355 18.4714L18.7716 18.3139L18.8988 18.2264L19.0077 18.0688L19.0985 18.0338L19.1349 17.9988L19.1893 18.0338H19.2801L19.3346 18.0163L19.4436 17.9638L19.5707 17.9288L19.6615 17.8763L19.7342 17.8588L19.8431 17.8063L19.9702 17.7188L20.1155 17.5963L20.1882 17.5613L20.3516 17.5263L20.6422 17.3687L20.6967 17.3512L20.8601 17.2287L20.9146 17.1762L21.0054 17.1412L21.1325 17.0187L21.3868 16.8611L21.5502 16.7036L21.6229 16.6686L21.7318 16.5461L21.8226 16.3711L21.8408 16.2485L21.8771 16.2135L21.8953 16.1435L21.9861 16.0035L22.1132 15.6009L22.1859 15.4259L22.204 15.3909L22.313 15.2159L22.4038 14.9883L22.4764 14.9183L22.5854 14.7433L22.7125 14.6208L22.7488 14.6033L22.8941 14.4457L22.9849 14.3232H23.0213L23.0939 14.2882H23.1302L23.2573 14.2007H23.2937L23.5298 14.0782L23.675 14.0607L23.7658 14.0432L23.8022 14.0607H23.9475L24.1109 14.0957L24.2199 14.1132L24.4378 14.0957L24.5649 14.0782L24.692 14.0957L24.7465 14.1482L24.692 14.2357L24.6376 14.1832L24.5831 14.2007L24.5286 14.3057V14.2182L24.4741 14.2357L24.3833 14.2882L24.2017 14.3232L24.238 14.2707V14.2007L24.2017 14.2532H24.1835V14.2007L24.1654 14.1657H24.0746V14.2007L24.0927 14.3057L24.1835 14.3932L24.2562 14.5333L24.2925 14.5683L24.3288 14.6908L24.4196 14.7783L24.1654 14.9183L24.1472 14.8133L24.0927 14.7608L24.1109 14.7258L24.1654 14.8133L24.2199 14.8483L24.2562 14.7783L24.238 14.6733L24.2017 14.6033L24.1472 14.6208L24.0927 14.6558L24.0564 14.6733L24.0383 14.6208L23.9838 14.6033L23.893 14.5333H23.8385L23.784 14.5683L23.7477 14.6383L23.7658 14.7433L23.8203 14.8133L23.8748 14.7783L23.8566 14.8308L23.6206 14.8658H23.5298L23.33 14.9008L23.1847 14.8833V14.8483L23.1302 14.7783L23.0394 14.7958L23.0031 14.6908L22.9123 14.6733L22.8396 14.6908L22.7307 14.8133L22.7125 14.8658L23.1302 14.8483V14.9008L22.8578 14.9183L22.7852 14.9358L22.6944 14.9708L22.6217 15.0233L22.5672 15.1109L22.4764 15.3034L22.4038 15.3734L22.2585 15.4434L22.1677 15.6709L22.1132 15.8285L22.1677 15.916L22.2403 15.9335L22.2222 15.951L22.1859 15.9335L22.1314 15.986L22.0587 16.0035L22.0224 16.0385L22.0043 16.161L21.9861 16.1785L21.859 16.4936L21.8953 16.5636L22.0224 16.5111L22.0769 16.4586H22.1314L22.1859 16.4411L22.2403 16.3886L22.2767 16.4061L22.4401 16.3361L22.4946 16.301V16.266L22.4583 16.161L22.5128 16.266L22.5491 16.2485L22.5309 16.196H22.6036L22.5491 16.126L22.5672 16.1085L22.6036 16.196H22.6944L22.767 16.161L22.8578 16.1435L23.0939 16.021V15.951L23.1302 15.916L23.0939 15.846H23.1121L23.1847 15.9685L23.2029 15.951V15.8285H23.221L23.2392 15.9335L23.2937 15.916L23.2392 15.811L23.3118 15.776L23.3481 15.881L23.4026 15.846L23.4208 15.8635L23.4934 15.811L23.5116 15.8285L23.5842 15.7935L23.6024 15.741L23.5842 15.706H23.675L23.6932 15.6709L23.6569 15.6184L23.7114 15.5134L23.784 15.6534L23.8203 15.6184H23.8748L23.8385 15.5484L23.7658 15.5834L23.7477 15.5659L23.893 15.4784L23.9111 15.5134L23.8385 15.5484L23.8748 15.5659L23.9475 15.5309L23.9111 15.4609L23.9475 15.4259L23.9838 15.5309L24.0201 15.5134L23.9475 15.3909L24.0201 15.3559L24.0927 15.4959L24.1109 15.4784L24.0383 15.3559L24.1109 15.3034L24.0927 15.2159L24.0019 15.1634L24.0201 15.0758L24.1835 14.9883L24.2199 14.9358L24.347 14.8833L24.3833 14.9708L24.2925 15.0583L24.347 15.1284L24.456 15.1984L24.7284 15.2159H24.7828L24.9281 15.1459L25.0553 15.0583L25.2187 14.9883L25.2732 14.9533L25.3277 14.8833L25.5274 14.8308L25.6364 14.7433L25.7635 14.6558L25.7998 14.6033H25.8543L25.9633 14.5508L26.1086 14.4282L26.272 14.3232L26.3083 14.3407L26.3628 14.3232L26.5263 14.1832L26.726 14.0782L26.8168 14.0607L26.8895 14.0082L26.9621 13.9732L26.9985 13.9382L27.1074 13.8856L27.1256 13.8506L27.2164 13.7806L27.2527 13.7281L27.3798 13.6231L27.507 13.5706L27.743 13.4481L27.9428 13.3256L27.9791 13.2905L28.0336 13.2555L28.1607 13.203L28.2152 13.1855L28.2879 13.098L28.3424 13.0805L28.4695 12.923H28.5058L28.6148 12.853L28.76 12.818L28.8872 12.7305L28.9053 12.6779L28.978 12.6254L29.0688 12.6079H29.1233V12.6429L29.2141 12.6079L29.3775 12.4679H29.4683L29.5046 12.3979H29.5954L29.6136 12.3629L29.6681 12.3454L29.7044 12.2929L29.7407 12.2754L29.9042 12.2579L29.9587 12.2054L30.0131 12.1529L30.2311 12.0478L30.2492 12.0128L30.2855 11.9953L30.4308 11.8903L30.5398 11.8378L30.5216 11.8028L30.6669 11.6978L30.7577 11.6453L30.8485 11.5928H30.8849L30.9212 11.6278H30.9938L31.2299 11.5403L31.3207 11.5578L31.6113 11.4527H31.6839L31.7929 11.4177L31.9019 11.3652L32.029 11.2777L32.1198 11.1727L32.1743 11.1202L32.2469 11.1027H32.3559L32.4467 11.0677L32.5193 11.0502L32.6283 11.0152L32.8462 10.8226L32.9189 10.7876L33.1186 10.6476L33.1549 10.5776H33.2821L33.3729 10.4726L33.391 10.4901L33.4455 10.4376L33.5908 10.3676L33.6634 10.2975L33.7179 10.2275L33.9359 10.1575L34.0267 10.21L34.2628 10.105L34.3899 10H34.4262Z" fill="#20195B"/>
<path d="M22.6036 16.196H22.5309L22.5491 16.2485L22.5128 16.266L22.4583 16.161L22.4946 16.266V16.301L22.4401 16.3361L22.2767 16.4061L22.2403 16.3886L22.1859 16.4411L22.1314 16.4586H22.0769L22.0224 16.5111L21.8953 16.5636L21.859 16.4936L21.9861 16.1785L22.0043 16.161L22.0224 16.0385L22.0587 16.0035L22.1314 15.986L22.1859 15.9335L22.2222 15.951L22.2403 15.9335L22.1677 15.916L22.1132 15.8285L22.1677 15.6709L22.2585 15.4434L22.4038 15.3734L22.4764 15.3034L22.5672 15.1109L22.6217 15.0233L22.6944 14.9708L22.7852 14.9358L22.8578 14.9183L23.1302 14.9008V14.8483L22.7125 14.8658L22.7307 14.8133L22.8396 14.6908L22.9123 14.6733L23.0031 14.6908L23.0394 14.7958L23.1302 14.7783L23.1847 14.8483V14.8833L23.33 14.9008L23.5298 14.8658H23.6206L23.8566 14.8308L23.8748 14.7783L23.8203 14.8133L23.7658 14.7433L23.7477 14.6383L23.784 14.5683L23.8385 14.5333H23.893L23.9838 14.6033L24.0383 14.6208L24.0564 14.6733L24.0927 14.6558L24.1472 14.6208L24.2017 14.6033L24.238 14.6733L24.2562 14.7783L24.2199 14.8483L24.1654 14.8133L24.1109 14.7258L24.0927 14.7608L24.1472 14.8133L24.1654 14.9183L24.4196 14.7783L24.3288 14.6908L24.2925 14.5683L24.2562 14.5333L24.1835 14.3932L24.0927 14.3057L24.0746 14.2007V14.1657H24.1654L24.1835 14.2007V14.2532H24.2017L24.238 14.2007V14.2707L24.2017 14.3232L24.3833 14.2882L24.4741 14.2357L24.5286 14.2182V14.3057L24.5831 14.2007L24.6376 14.1832L24.692 14.2357L24.7465 14.1482L24.692 14.0957L24.5649 14.0782L24.4378 14.0957L24.2199 14.1132L24.1109 14.0957L23.9475 14.0607H23.8022L23.7658 14.0432L23.675 14.0607L23.5298 14.0782L23.2937 14.2007H23.2573L23.1302 14.2882H23.0939L23.0213 14.3232H22.9849L22.8941 14.4457L22.7488 14.6033L22.7125 14.6208L22.5854 14.7433L22.4764 14.9183L22.4038 14.9883L22.313 15.2159L22.204 15.3909L22.1859 15.4259L22.1132 15.6009L21.9861 16.0035L21.8953 16.1435L21.8771 16.2135L21.8408 16.2485L21.8226 16.3711L21.7318 16.5461L21.6229 16.6686L21.5502 16.7036L21.3868 16.8611L21.1325 17.0187L21.0054 17.1412L20.9146 17.1762L20.8601 17.2287L20.6967 17.3512L20.6422 17.3687L20.3516 17.5263L20.1882 17.5613L20.1155 17.5963L19.9702 17.7188L19.8431 17.8063L19.7342 17.8588L19.6615 17.8763L19.5707 17.9288L19.4436 17.9638L19.3346 18.0163L19.2801 18.0338H19.1893L19.1349 17.9988L19.0985 18.0338L19.0077 18.0688L18.8988 18.2264L18.7716 18.3139L18.5355 18.4714L18.4266 18.5414L18.1542 18.7515L17.9907 18.804H17.9362L17.8818 18.8565L17.7183 18.9265L17.5912 18.9965L17.3914 19.084L17.1917 19.2415L17.1009 19.2765L16.9737 19.3466L16.7013 19.4691L16.556 19.5566L16.4652 19.5916L16.3563 19.6791L16.1747 19.7666L16.0838 19.8016L15.9022 19.8541L15.8478 19.8891L15.7933 19.9067L15.4845 20.0292L15.3937 20.0467H15.3211L15.1213 20.1167H15.0305L14.8489 20.2042L14.7218 20.2742H14.7036L14.5947 20.3267L14.4494 20.4142L14.3767 20.4492L14.2315 20.5368L14.0862 20.6068L13.959 20.6418L13.7774 20.7293L13.6866 20.7468L13.5413 20.7993L13.2326 20.8693L13.1418 20.9043L13.0692 20.9568L12.7423 21.0618L12.6515 21.0443L12.488 21.1494L12.3609 21.2019L12.2156 21.2894L11.9977 21.3944L11.8887 21.4469L11.7616 21.4819L11.5073 21.6044L11.4347 21.6219L11.2713 21.6919L11.1986 21.7095L11.1078 21.762L10.9988 21.797L10.8172 21.832L10.7264 21.902L10.6901 21.8845L10.6175 21.937L10.4722 22.0245L10.3451 22.0945L10.2906 22.112L10.1271 22.217L10 22.2345V25.175V25.8051V27.5729V38.8623V42.1529V42.5729V48.2964L10.0182 49.014V52.7596V55.7176V57.6254V66.9195L10 68.8973L10.0182 77.6138V84.2299V84.3699L10.0545 84.8425V86.0677V86.4702V86.8903V86.9428V87.4329V87.4504V88.7456L10.0182 89.4282V89.7433V91.7036V92.7538V93.2089V93.734V95.3967V95.6943V96.2369V96.6744V98.1972V98.5823V98.8798V99.6499L10 99.79L10.0182 100.49L10 101.82L10.0182 102.188L10 102.608L10.0182 103.01V103.658V104.883V105.198V108.594V109.504L10 112.095V114.947H12.1611H13.7411H17.2825H20.0611H21.1325H25.4003L29.3957 114.965L29.4865 114.982L31.3389 114.965H34.3717H35.8064L43.6337 114.947H44.7233H45.2863H46.3941H46.6665H47.9015L50.4985 114.93H52.2782L55.4563 114.912L57.1635 114.895H58.1441H59.1793H59.8876H60.505L61.1407 114.877H61.2859H62.4119H63.6832H64.4459H64.9544H65.7172H66.262H66.7705H67.2971H67.9691H68.9316H69.4764L70.0213 114.895H71.2925H73.1994H75.0336H75.3242H75.9417H76.6681H77.9393H78.1573H78.9563H79.4104H80.1913H81.8439H83.0062H84.223H84.8223H86.0572L86.6565 114.912H87.2558H87.8733H88.4726H89.0719H89.6712H90.2886L91.4328 114.895L93.9026 114.912H95.0831L95.7369 114.93L97.5529 114.947H98.1704H99.1692H99.369L101.185 114.965H101.784H102.42L103.619 114.982H104.236H105.453L106.052 115H106.651H107.269H107.886H109.103H111.537H112.118H112.735H113.952H114.551H115.169H115.823H116.513H116.985H118.801H119.418H121.235H122.469H123.069H124.267L125.484 114.982H126.102H126.701H128.535H129.171H129.734L130.315 114.965H130.951L134.583 114.947H137.016H137.634H138.215H138.85H140.049H141.883H143.1H143.718H144.317H146.732H147.332H148.548H149.293H149.765H150.364H150.982L151.563 114.93H152.18H152.78H153.415H153.997H156.43H157.029L158.246 114.912H158.845H159.445H160.843H161.951H162.55H163.041L163.168 114.527L163.349 114.142L163.404 114.037L163.531 113.792L163.713 113.46L163.912 113.162L164.13 112.882L164.348 112.602L164.566 112.375L164.947 112.007L165.165 111.814L165.365 111.657L165.547 111.517L165.747 111.394L166.055 111.184L166.328 111.044L166.6 110.904L167 110.712L167.145 110.659L167.599 110.519L167.726 110.484L168.089 110.397L168.362 110.327L168.616 110.292L169.052 110.222L169.288 110.204L169.742 110.169H170.269L170.559 110.187L170.868 110.222L171.177 110.257L171.467 110.309L171.758 110.379L172.339 110.537L172.757 110.677L172.92 110.729L173.192 110.852L173.465 110.974L173.737 111.114L173.992 111.272L174.228 111.412L174.355 111.499L174.391 111.517L174.464 111.482V111.429L174.536 111.394L174.591 111.412L174.573 111.359L174.736 111.272L174.954 111.149L174.918 111.079L174.972 111.132L175.226 110.974V110.957L175.154 110.852L175.226 110.834L175.299 110.869L175.335 110.799L175.408 110.834L175.481 110.764L175.571 110.694L175.59 110.624L175.626 110.642L175.662 110.589L175.862 110.449L175.898 110.379L175.935 110.397L176.08 110.292L176.062 110.274L176.207 110.204L176.389 110.082L176.407 110.012L176.443 110.047L176.607 109.959L176.679 109.924L176.643 109.872V109.819L176.697 109.837L176.752 109.784L176.788 109.837L176.897 109.749H176.952L177.061 109.697L177.151 109.627L177.242 109.592H177.297L177.333 109.504L177.388 109.539L177.515 109.487L177.624 109.434L177.533 109.224V109.189L177.606 109.364L177.66 109.417L177.805 109.347L177.842 109.242L177.878 109.102L177.842 108.979L177.878 109.014L177.914 109.137L177.878 109.207L177.914 109.242L178.023 109.259L178.06 109.242L178.078 109.277L178.168 109.294L178.296 109.347H178.405L178.495 109.382V109.329H178.55L178.568 109.364H178.622L178.641 109.347L178.968 109.329L179.04 109.382L179.167 109.399H179.403H179.621L179.73 109.452L179.767 109.487L179.785 109.627L180.021 109.574L180.42 109.469L180.765 109.329L180.911 109.259L181.165 109.049L181.401 108.874L181.546 108.804L181.692 108.629L181.782 108.559L181.891 108.489L182 108.454L182.182 108.436L182.745 108.419L183.126 108.384L183.235 108.366L183.362 108.331L183.471 108.191L183.562 108.121L183.653 107.929L183.762 107.754L183.798 107.614L183.835 107.421L183.853 107.351V107.176L183.816 107.071L183.78 107.019L183.653 106.651L183.617 106.529L183.599 106.371V105.968V105.776L183.635 105.636L183.671 105.513L183.708 105.408L183.798 105.303L183.998 105.181L184.143 105.058L184.307 104.971L184.507 104.866L184.688 104.778L184.888 104.726L185.051 104.691L185.215 104.673L185.396 104.586L185.56 104.551L185.687 104.446L185.832 104.323L185.923 104.236L186.05 104.008L186.105 103.868L186.123 103.763L186.268 103.483L186.377 103.361L186.468 103.256L186.541 103.203L186.65 103.151L186.886 103.045L187.104 102.975L187.213 102.94L187.358 102.905L187.558 102.835L187.648 102.748L187.866 102.573L187.975 102.503L188.538 101.978L188.611 101.89L188.702 101.82L188.811 101.645L188.992 101.523L189.21 101.4L189.537 101.278L189.61 101.225L189.846 101.05L190.136 100.875L190.318 100.788L190.445 100.753H190.536L190.699 100.823H190.827L191.026 100.77L191.226 100.683L191.48 100.595L191.735 100.473L191.862 100.42L191.989 100.385L192.225 100.333L192.37 100.315L192.479 100.263L192.497 100.21L192.534 100.088L192.606 99.965L192.661 99.895L192.842 99.7725L192.933 99.7199L193.042 99.6849L193.206 99.5799L193.26 99.5274L193.315 99.3874L193.351 99.2299L193.387 99.0723L193.478 98.8798L193.551 98.6873L193.605 98.5823L193.714 98.4947L193.805 98.4597H193.896L193.968 98.4772L194.168 98.5473L194.277 98.6173L194.459 98.6698L194.767 98.7398H194.895L194.967 98.7223L195.04 98.6873L195.294 98.5123L195.712 98.2322L195.784 98.1972L195.948 98.1797H196.039L196.184 98.2147H196.257L196.402 98.1447L196.547 97.9872L196.711 97.8296L196.892 97.6896L196.929 97.6021L196.983 97.4096V97.252L196.929 97.077L196.91 97.007L196.692 96.6919L196.511 96.4994L196.384 96.3594L196.311 96.3069L196.166 96.2719L196.039 96.2194L195.912 96.1143L195.839 96.0268L195.821 95.9568L195.712 95.5718L195.548 95.3267L195.476 95.2042L195.439 95.0642L195.349 94.8891L195.33 94.8716L195.167 94.7491L195.022 94.6441L194.804 94.4691L194.695 94.3816L194.622 94.3466L194.531 94.3291L194.44 94.2765L194.186 94.1365L193.986 94.084L193.841 93.9965L193.769 93.944L193.732 93.874L193.66 93.839L193.46 93.734L193.278 93.6639L193.206 93.6114L193.097 93.5064L192.988 93.2789L192.951 93.1914L192.806 92.8588L192.77 92.8063L192.733 92.7188L192.643 92.5087L192.624 92.4562L192.606 92.3687L192.552 92.2112L192.479 92.0537L192.334 91.7911L192.152 91.5461L192.08 91.4761L191.989 91.4061L191.789 91.196L191.644 91.056L191.462 90.916L191.317 90.846L191.172 90.8285L191.008 90.7935L190.917 90.7585L190.754 90.6534L190.699 90.6184L190.445 90.3384L190.118 90.0933L189.973 89.9708L189.918 89.9008L189.864 89.8308L189.81 89.7083L189.755 89.5858L189.737 89.3407V89.2532V89.1482L189.664 88.9206L189.628 88.7981L189.592 88.6931L189.501 88.4656L189.464 88.3256L189.392 88.168L189.247 87.8705L189.192 87.748L189.156 87.6079L189.138 87.5379L189.065 87.4504L188.992 87.3979L188.684 87.2929L188.502 87.1704L188.393 87.0653L188.23 86.9778L187.993 86.9253L187.884 86.9603L187.739 87.0653L187.576 87.1179L187.213 87.2229H187.104L186.94 87.1704L186.65 86.9778L186.577 86.8728L186.504 86.8028L186.432 86.7853L186.323 86.7678L186.196 86.7153L186.123 86.6628L186.068 86.5928L186.014 86.4527L185.978 86.3127V86.1027L185.905 85.8926L185.923 85.8051L185.869 85.6476L185.85 85.5251L185.76 85.21L185.705 85.1225V85.0175L185.778 84.8425L185.832 84.6849L185.796 84.5274V84.4049L185.923 84.2299L185.959 84.1073V83.8798L185.996 83.7748L185.941 83.3197L185.905 83.1797V82.8821L185.869 82.5496V82.3921L185.887 82.287V82.1995L185.85 81.867L185.814 81.6744L185.778 81.5694L185.56 81.4119L185.415 81.2719L185.306 81.1494L185.16 80.9743L185.07 80.8868L184.979 80.7643L184.815 80.5893L184.779 80.5543L184.361 80.3617L184.198 80.2917L183.798 80.2392L183.653 80.2042L183.471 80.2217L183.344 80.2567L183.145 80.3967L183.017 80.5192L182.872 80.6418L182.763 80.6768H182.436L182.364 80.6593L182.109 80.5543L182.055 80.5192L181.928 80.4142L181.819 80.2742L181.746 80.1867L181.692 80.1342V80.0117L181.728 79.9066L181.837 79.7666L181.873 79.6791V79.5741L181.819 79.3991L181.801 79.224V79.119L181.673 78.9265L181.637 78.804L181.546 78.6989L181.492 78.5764L181.474 78.5414L181.528 78.4714L181.565 78.4539L181.746 78.4014H181.837L181.873 78.3839L181.91 78.2789L181.855 77.9288V77.8238L181.837 77.7888V77.6663L181.801 77.5438L181.728 77.4562L181.692 77.4387L181.655 77.3862L181.546 77.2987L181.528 77.2112L181.583 77.1062L181.619 77.0537L181.601 76.9662L181.673 76.9136L181.801 76.7211L181.91 76.5986L182.073 76.5286L182.128 76.4761L182.146 76.3886L182.255 76.2485L182.291 76.1435L182.273 76.056L182.236 76.0035L182.182 75.9685L182.073 75.9335H181.964L181.873 75.951H181.819L181.655 75.8985L181.601 75.8285L181.528 75.741L181.419 75.5309L181.401 75.4434L181.419 75.3734L181.437 75.2859L181.51 75.1809L181.565 74.9708L181.583 74.8658L181.655 74.7433L181.71 74.5683L181.801 74.4457L181.964 74.3232L181.982 74.2707V74.1482L182.019 74.0432L182.109 73.8681V73.7456L182.037 73.6406L181.982 73.5706L181.692 73.2555L181.655 73.1855L181.637 73.063L181.655 72.993L181.801 72.818L182.091 72.6779L182.2 72.5904L182.273 72.4854L182.291 72.2929L182.309 72.1704L182.382 72.0128L182.436 71.9603L182.509 71.9253L182.582 71.9078H182.672L182.927 71.9603L183.09 72.0303L183.471 72.0828L183.58 72.1003L183.671 72.0828L183.744 72.0303L183.798 71.9428L183.835 71.8553L183.962 71.6453L184.016 71.5578L184.216 71.4527L184.416 71.4177L184.488 71.3827L184.616 71.1902L184.743 71.0152V70.7526L184.779 70.6651L184.888 70.5076L184.942 70.4726L184.997 70.4026L185.088 70.3501L185.142 70.28L185.179 70.175L185.269 70.07L185.306 69.9475V69.8775L185.251 69.7725L185.124 69.6849L185.106 69.6499L184.906 69.4749L184.87 69.4049L184.852 69.2824L184.87 69.1599L184.924 69.0548L184.979 69.0198L185.07 69.0023L185.451 68.9673H185.542L185.669 69.0548L185.796 69.0723L185.887 69.0548L185.923 69.0198L185.941 68.9498L185.923 68.8098L185.941 68.7398L185.996 68.6523L186.087 68.5473L186.304 68.3897L186.359 68.3022L186.341 68.1622L186.286 68.0222L186.068 67.7771L185.905 67.5496L185.796 67.4271L185.633 67.2695L185.56 67.1645L185.542 67.112V67.042L185.578 66.902L185.542 66.6219L185.524 66.4994L185.469 66.3769L185.433 66.3244L185.179 66.1319L184.961 65.9568L184.888 65.8693L184.597 65.4142L184.561 65.2742L184.379 64.9242L184.198 64.7141L184.162 64.5741L184.18 64.3816V64.3115L184.107 64.084L184.034 64.0315H183.962L183.798 64.0665L183.726 64.049L183.671 63.979L183.617 63.874V63.7865V63.734L183.708 63.5939L183.726 63.4889L183.744 63.2264L183.78 63.1564L183.889 63.0338L184.016 62.9463L184.379 62.6838L184.507 62.5963L184.779 62.4912L184.979 62.4037L185.106 62.2812L185.306 62.1062L185.378 62.0887H185.578L185.723 62.0012L185.814 61.9487L186.05 61.7911L186.214 61.7386L186.45 61.5811L186.559 61.5286L186.65 61.4761L186.94 61.2135L187.158 61.1435L187.122 60.951L187.158 60.846L187.321 60.6359L187.43 60.4784L187.485 60.2509L187.521 60.1809L187.558 60.0408L187.612 60.0058H187.776L187.83 59.9183L187.939 59.7958L188.012 59.7258L188.121 59.6558L188.338 59.5508L188.556 59.5333L188.629 59.4632L188.811 59.3582L188.92 59.2707L189.01 59.1657L189.065 58.9557V58.9207L189.01 58.8331H188.956L188.883 58.8506L188.756 58.9382L188.556 59.1132L188.502 59.1482L188.375 59.1657L188.284 59.1482L188.248 59.0782L188.266 58.9907L188.393 58.6756L188.556 58.3256L188.647 58.238L188.865 58.1155L188.956 58.098H189.083L189.156 58.0805L189.301 57.958L189.555 57.783L189.664 57.6954L189.682 57.6604V57.5729L189.719 57.5029L189.755 57.4679V57.4329L189.864 57.3804L190.1 57.3279L190.264 57.2579L190.463 57.1003L190.536 56.9428L190.718 56.7503L191.044 56.3652L191.153 56.0852L191.226 55.9452L191.262 55.8751L191.571 55.6126L191.716 55.4376L191.789 55.3326L191.862 55.1925L191.898 55.0525L191.916 54.93L192.043 54.6324L192.279 54.1774L192.461 53.8798L192.515 53.7573V53.6873L192.461 53.5998L192.298 53.4597L192.261 53.4072V53.3197L192.298 53.2147L192.425 53.0222L192.443 52.9347L192.461 52.7596L192.588 52.5146L192.661 52.4446H192.806L192.897 52.4096L192.969 52.2345V52.0945L192.951 52.0245V51.9195L193.006 51.8145L193.06 51.6919L193.133 51.5519L193.169 51.3944L193.224 51.3069L193.315 51.2369L193.351 51.1494L193.46 50.9393L193.732 50.6593L193.932 50.5718L194.059 50.4842L194.186 50.2917L194.568 50.0467L194.64 49.9942L194.695 49.9417L194.677 49.8016L194.568 49.6441L194.604 49.5566L194.677 49.4691L194.767 49.4341L194.931 49.3991H195.185L195.33 49.3816L195.421 49.3116L195.494 49.2415L195.621 49.1015L195.712 48.734L195.857 48.5239L195.93 48.4889L196.039 48.4714L196.166 48.4889L196.783 48.5064L196.983 48.4539L197.292 48.2789L197.437 48.1914L197.709 48.1214L197.764 48.0688L197.8 48.0163L197.855 47.9638L197.946 47.9113L198 47.8588V47.7713L197.946 47.6138L197.818 47.4912L197.564 47.2987L197.383 47.1412L197.328 47.0012L197.274 46.8086L197.237 46.6861L197.146 46.5811L196.983 46.4936L196.801 46.4761L196.692 46.4411L196.583 46.3886L196.493 46.3361L196.42 46.2135L196.347 46.056L196.311 45.9335L196.347 45.7935L196.42 45.706L196.475 45.5659L196.547 45.3209V45.1984L196.475 45.0583L196.42 44.9883L196.347 44.9708L196.238 45.0058L196.02 45.1108L195.93 45.1984L195.803 45.3034H195.657L195.512 45.2509L195.385 45.1809H195.276L195.149 45.2334L195.022 45.3034L194.949 45.3384L194.84 45.3559L194.749 45.3734L194.64 45.3209L194.549 45.2159L194.459 45.0058L194.44 44.9183L194.422 44.7783L194.386 44.6733L194.259 44.5157L194.186 44.4982L194.041 44.4807L193.986 44.5157L193.805 44.6208L193.696 44.7433L193.66 44.8133L193.605 44.9358L193.514 44.9883L193.405 45.0058L193.296 44.9883L193.187 44.9008L193.133 44.8483L192.969 44.7083L192.897 44.6208L192.733 44.4982L192.624 44.4457L192.552 44.4282H192.388L192.316 44.4457L192.189 44.5157L192.025 44.5508L191.971 44.5858L191.862 44.6208L191.553 44.6908L191.444 44.6733L191.353 44.6208L191.335 44.6033V44.5157L191.371 44.3582L191.426 44.2882L191.553 44.1832L191.571 44.1132L191.553 44.0432L191.498 43.9382L191.371 43.8506L191.081 43.7806L190.99 43.7281L190.954 43.5706V43.4481L190.917 43.2555L190.863 43.1855L190.79 43.1155L190.663 43.0805H190.5L190.409 43.063L190.354 43.0105L190.155 42.853L190.1 42.8355L189.864 42.8005H189.773L189.719 42.8355L189.664 42.923L189.483 43.028L189.374 43.098L189.119 43.0805L188.92 43.0455L188.738 42.993L188.575 42.958L188.52 42.9055L188.466 42.8005L188.447 42.713L188.466 42.5729L188.484 42.4854L188.556 42.2579V42.1879V42.0828L188.502 41.8378L188.447 41.7853L188.393 41.7503H188.193L187.993 41.8203L187.884 41.7853L187.866 41.6628L187.903 41.5228L187.957 41.4177V41.3127L187.939 41.2602L187.866 41.1202L187.757 41.0152L187.685 40.9452L187.503 40.8226L187.449 40.7876L187.303 40.7701L187.249 40.7351L187.194 40.6651L187.176 40.5251L187.194 40.4726L187.249 40.4026L187.412 40.3501L187.449 40.315L187.467 40.245V40.1925L187.394 39.965L187.194 39.6674L187.104 39.4749L187.049 39.4399H186.976L186.922 39.4224L186.795 39.3349L186.686 39.2299L186.577 39.0548L186.522 38.7573L186.486 38.6698L186.286 38.4772L186.141 38.4072L186.05 38.3547L185.941 38.1797L185.832 37.9872L185.76 37.9172L185.578 37.7246V37.6371L185.669 37.5846L185.76 37.5496L185.923 37.5846L186.032 37.5496L186.068 37.4971L186.014 37.3921L185.996 37.3045L186.068 37.2345L186.177 37.1995H186.286L186.323 37.217L186.413 37.3045L186.486 37.3221L186.541 37.287L186.559 37.217V37.077L186.577 36.9895L186.522 36.867L186.432 36.6569L186.413 36.4994V36.3944L186.395 36.2544V36.1669L186.45 36.0968V36.0443L186.413 35.9918L186.395 35.8868L186.413 35.7118L186.395 35.4842L186.377 35.3792L186.286 35.2392L186.25 35.1517L186.214 35.1167L186.123 35.0992L186.087 35.0467L186.068 34.9767L186.087 34.9067L186.105 34.8716L186.232 34.7666L186.323 34.6616L186.341 34.5566L186.304 34.4341L186.286 34.2765L186.232 34.1365L186.159 33.9965L186.068 33.839L185.996 33.7515L185.869 33.6464L185.814 33.5764L185.778 33.4889V33.3489L185.832 33.2964L185.941 33.2614L186.105 33.2789L186.232 33.3314H186.341L186.359 33.2964L186.377 33.2089V33.1389L186.323 32.9813L186.304 32.8763L186.268 32.7013L186.25 32.5613L186.214 32.3687L186.232 32.2637L186.268 32.0187L186.286 31.9312L186.268 31.7036L186.25 31.5811L186.177 31.4586L186.105 31.266L186.032 31.126L185.887 31.021L185.778 31.0035L185.651 30.951L185.578 30.8285H185.505H185.451L185.142 30.9335L184.997 30.9685H184.942L184.761 30.9335L184.706 30.8985L184.652 30.846L184.616 30.776V30.6709L184.634 30.6009V30.4434L184.688 30.2159L184.706 30.1634L184.761 30.0758L184.906 29.9358L184.961 29.8308L185.015 29.7783L185.088 29.7433H185.16L185.306 29.7783H185.378L185.505 29.7258L185.56 29.6383L185.633 29.4107L185.687 29.2007V29.1132L185.651 29.0432L185.56 29.0082L185.415 29.0257L185.269 29.1307L185.233 29.1482L185.106 29.1657L185.07 29.1482L184.961 29.0782L184.87 28.9907L184.779 28.8856L184.488 28.7456L184.379 28.7106L184.325 28.6581L184.27 28.4831L184.289 28.3431L184.343 28.133V27.958L184.325 27.8705L184.307 27.8355L184.234 27.748L184.18 27.713H184.071L183.907 27.7655H183.78L183.744 27.748L183.689 27.6779L183.526 27.5379L183.49 27.4854L183.417 27.4679L183.253 27.5204L183.09 27.6079L183.017 27.6254L182.89 27.6079L182.763 27.5554L182.709 27.5204L182.654 27.4329L182.563 27.2404L182.545 27.1179V27.0478L182.563 26.8378V26.7678L182.527 26.6978L182.436 26.6278L182.327 26.6103L182.291 26.6278L182.2 26.7678L182.164 26.8903L182.128 26.9953L182.091 27.0828L182.019 27.1354L181.928 27.1179L181.855 27.0303L181.819 26.9428L181.746 26.8553L181.637 26.7853L181.565 26.7678L181.456 26.7503L181.401 26.7328L181.219 26.7503L181.038 26.8378L180.911 27.1003L180.784 27.2404H180.693L180.602 27.1704H180.529L180.42 27.0653L180.348 26.9603L180.257 26.8728L180.202 26.8378H180.148L179.93 27.0478H179.676L179.585 26.9778L179.531 26.9078L179.476 26.7503V26.6803L179.567 26.5928L179.676 26.5052V26.4352L179.621 26.2077L179.567 26.1377L179.512 26.1027L179.276 26.0327L179.24 25.9977L179.185 25.6301L179.204 25.5776L179.349 25.4026L179.367 25.3326V25.245L179.349 25.1225L179.258 24.9125L179.149 24.7375L179.113 24.6324L179.058 24.5099L179.077 24.4224L179.058 24.2124V24.0898L179.004 23.9323V23.8448L178.913 23.8098L178.786 23.7223L178.677 23.7048L178.604 23.5648L178.586 23.4947V23.2672L178.532 23.1972L178.495 23.1797L178.35 23.1972L178.296 23.2322L178.259 23.2672V23.3197L178.277 23.4422L178.241 23.4597H178.168L178.078 23.4247H178.005L177.932 23.3897L177.823 23.2672L177.751 23.2147L177.714 23.0922L177.678 22.9347L177.587 22.8821L177.46 22.7421L177.424 22.6546L177.369 22.6021L177.151 22.5321L177.043 22.5146L176.952 22.4096V22.3396L177.006 22.2345L177.043 22.112L177.097 21.972L177.115 21.8495L177.079 21.7795L177.024 21.6744L176.988 21.5869L176.843 21.4994L176.697 21.4644L176.57 21.4119L176.389 21.3069L175.354 21.3244H174.282H173.919H172.92H172.593H171.994H170.559H170.141L168.398 21.3419L166.854 21.3594H165.547L164.058 21.3769H163.059L161.152 21.3594H159.935L159.263 21.3419H157.084H156.721L156.103 21.3244H154.832H153.833L152.943 21.3419H152.326H151.672H150.419L149.129 21.3594H148.494H147.858H146.587H144.026H143.445L142.101 21.3419H141.466L140.194 21.3244L137.761 21.2894H137.053L135.799 21.2719L134.546 21.2544L133.929 21.2369H132.694L131.641 21.2194H130.224L128.953 21.2019H128.335L127.082 21.2194L125.847 21.2369H125.23L124.594 21.2544H123.959L122.706 21.2719H122.488H122.07L120.817 21.2894H120.181L119.546 21.3069H118.293H117.657H117.039H115.768H112.862L111.41 21.2894H110.138H107.614H106.343L105.725 21.3069L104.436 21.3244H103.837L103.219 21.3069H102.583L101.948 21.3244L100.677 21.3419H100.041H99.3145L98.7697 21.3594H98.1341H97.4803H96.9536H96.2272H95.5916H94.956H94.3385H93.0672L91.8141 21.3419L91.1967 21.3244L88.7087 21.2894H88.0912H87.4556L86.8381 21.2719L86.2206 21.2894H85.8574L85.5305 21.3069H84.9494L83.7145 21.3244H82.4432H81.8076H80.5363L78.6658 21.3069H78.0483L76.7952 21.2894L75.5603 21.3069L74.3072 21.2894H73.6897H72.4366H71.8192L71.2017 21.3069H70.5479L69.2948 21.3244L67.4061 21.3594L66.9521 21.3769H66.1167H65.4992H64.8636L63.6105 21.3944H62.9567L62.3029 21.3769L60.2508 21.3419H59.7241L59.0158 21.3244H57.3087L57.0182 21.3069H56.546H55.7651H55.2566H54.6028H53.8945H53.2589H53.2044H52.6414L52.0058 21.3244H51.3702L50.7345 21.3419H50.0989H49.4633H48.8458H48.2102H47.5746H46.9571H46.3033L45.0502 21.3594H44.4146H43.779H43.1615H42.5259H41.3091H40.6372L40.0015 21.3419H38.7485L38.1128 21.3244H37.4954L36.3149 21.3419L36.2241 21.3244L35.6066 21.3419H34.9165H34.4262V17.6838V14.9708V14.7958V13.5881V11.1027V10H34.3899L34.2628 10.105L34.0267 10.21L33.9359 10.1575L33.7179 10.2275L33.6634 10.2975L33.5908 10.3676L33.4455 10.4376L33.391 10.4901L33.3729 10.4726L33.2821 10.5776H33.1549L33.1186 10.6476L32.9189 10.7876L32.8462 10.8226L32.6283 11.0152L32.5193 11.0502L32.4467 11.0677L32.3559 11.1027H32.2469L32.1743 11.1202L32.1198 11.1727L32.029 11.2777L31.9019 11.3652L31.7929 11.4177L31.6839 11.4527H31.6113L31.3207 11.5578L31.2299 11.5403L30.9938 11.6278H30.9212L30.8849 11.5928H30.8485L30.7577 11.6453L30.6669 11.6978L30.5216 11.8028L30.5398 11.8378L30.4308 11.8903L30.2855 11.9953L30.2492 12.0128L30.2311 12.0478L30.0131 12.1529L29.9587 12.2054L29.9042 12.2579L29.7407 12.2754L29.7044 12.2929L29.6681 12.3454L29.6136 12.3629L29.5954 12.3979H29.5046L29.4683 12.4679H29.3775L29.2141 12.6079L29.1233 12.6429V12.6079H29.0688L28.978 12.6254L28.9053 12.6779L28.8872 12.7305L28.76 12.818L28.6148 12.853L28.5058 12.923H28.4695L28.3424 13.0805L28.2879 13.098L28.2152 13.1855L28.1607 13.203L28.0336 13.2555L27.9791 13.2905L27.9428 13.3256L27.743 13.4481L27.507 13.5706L27.3798 13.6231L27.2527 13.7281L27.2164 13.7806L27.1256 13.8506L27.1074 13.8856L26.9985 13.9382L26.9621 13.9732L26.8895 14.0082L26.8168 14.0607L26.726 14.0782L26.5263 14.1832L26.3628 14.3232L26.3083 14.3407L26.272 14.3232L26.1086 14.4282L25.9633 14.5508L25.8543 14.6033H25.7998L25.7635 14.6558L25.6364 14.7433L25.5274 14.8308L25.3277 14.8833L25.2732 14.9533L25.2187 14.9883L25.0553 15.0583L24.9281 15.1459L24.7828 15.2159H24.7284L24.456 15.1984L24.347 15.1284L24.2925 15.0583L24.3833 14.9708L24.347 14.8833L24.2199 14.9358L24.1835 14.9883L24.0201 15.0758L24.0019 15.1634L24.0927 15.2159L24.1109 15.3034L24.0383 15.3559L24.1109 15.4784L24.0927 15.4959L24.0201 15.3559L23.9475 15.3909L24.0201 15.5134L23.9838 15.5309L23.9475 15.4259L23.9111 15.4609L23.9475 15.5309L23.8748 15.5659L23.8385 15.5484M22.6036 16.196L22.5491 16.126L22.5672 16.1085L22.6036 16.196ZM22.6036 16.196H22.6944L22.767 16.161L22.8578 16.1435L23.0939 16.021V15.951L23.1302 15.916L23.0939 15.846H23.1121L23.1847 15.9685L23.2029 15.951V15.8285H23.221L23.2392 15.9335L23.2937 15.916L23.2392 15.811L23.3118 15.776L23.3481 15.881L23.4026 15.846L23.4208 15.8635L23.4934 15.811L23.5116 15.8285L23.5842 15.7935L23.6024 15.741L23.5842 15.706H23.675L23.6932 15.6709L23.6569 15.6184L23.7114 15.5134L23.784 15.6534L23.8203 15.6184H23.8748L23.8385 15.5484M23.8385 15.5484L23.7658 15.5834L23.7477 15.5659L23.893 15.4784L23.9111 15.5134L23.8385 15.5484Z" stroke="white" stroke-width="2.35672"/>
<path d="M213.52 0.719999H246.16C250.107 0.719999 254.213 1.2 258.48 2.15999C262.853 3.01333 266.8 4.55999 270.32 6.8C273.947 9.03999 276.88 12.1333 279.12 16.08C281.467 19.92 282.64 24.7733 282.64 30.64C282.64 35.76 281.68 40.1867 279.76 43.92C277.947 47.6533 275.44 50.7467 272.24 53.2C269.147 55.5467 265.52 57.3067 261.36 58.48C257.307 59.6533 253.04 60.24 248.56 60.24H224.08V114H213.52V0.719999ZM224.08 50.64H248.08C251.067 50.64 254 50.32 256.88 49.68C259.76 48.9333 262.32 47.8133 264.56 46.32C266.8 44.72 268.613 42.64 270 40.08C271.387 37.52 272.08 34.3733 272.08 30.64C272.08 27.0133 271.333 23.92 269.84 21.36C268.453 18.8 266.587 16.72 264.24 15.12C262 13.4133 259.387 12.1867 256.4 11.44C253.413 10.6933 250.427 10.32 247.44 10.32H224.08V50.64ZM345.455 100.08C341.722 105.733 337.082 109.787 331.535 112.24C326.095 114.693 320.068 115.92 313.455 115.92C307.802 115.92 302.682 114.96 298.095 113.04C293.508 111.12 289.562 108.453 286.255 105.04C282.948 101.52 280.388 97.4133 278.575 92.72C276.868 87.92 276.015 82.64 276.015 76.88C276.015 71.3333 276.922 66.2133 278.735 61.52C280.548 56.8267 283.108 52.7733 286.415 49.36C289.722 45.84 293.615 43.12 298.095 41.2C302.575 39.1733 307.535 38.16 312.975 38.16C318.628 38.16 323.588 39.1733 327.855 41.2C332.228 43.12 335.855 45.7333 338.735 49.04C341.722 52.24 343.962 55.92 345.455 60.08C346.948 64.24 347.695 68.4533 347.695 72.72V79.44H285.615C285.615 81.4667 285.988 84.08 286.735 87.28C287.588 90.3733 289.082 93.4133 291.215 96.4C293.348 99.3867 296.175 101.947 299.695 104.08C303.322 106.213 307.962 107.28 313.615 107.28C318.522 107.28 323.268 106.107 327.855 103.76C332.442 101.413 335.962 98.2133 338.415 94.16L345.455 100.08ZM338.095 70.8C338.095 67.4933 337.402 64.4 336.015 61.52C334.735 58.64 332.922 56.1333 330.575 54C328.335 51.76 325.615 50 322.415 48.72C319.322 47.44 316.015 46.8 312.495 46.8C307.268 46.8 302.895 47.8667 299.375 50C295.962 52.1333 293.242 54.5867 291.215 57.36C289.188 60.1333 287.748 62.8533 286.895 65.52C286.042 68.08 285.615 69.84 285.615 70.8H338.095ZM357.831 60.88C357.831 59.4933 357.778 57.84 357.671 55.92C357.565 53.8933 357.458 51.8667 357.351 49.84C357.351 47.8133 357.298 45.9467 357.191 44.24C357.085 42.4267 357.031 41.04 357.031 40.08H366.631C366.738 42.8533 366.791 45.52 366.791 48.08C366.898 50.64 367.058 52.2933 367.271 53.04H367.751C369.671 48.9867 372.871 45.52 377.351 42.64C381.831 39.6533 387.058 38.16 393.031 38.16C398.791 38.16 403.485 39.0667 407.111 40.88C410.738 42.6933 413.565 45.0933 415.591 48.08C417.725 50.96 419.165 54.32 419.911 58.16C420.765 62 421.191 65.9467 421.191 70V114H411.591V70.48C411.591 67.4933 411.325 64.6133 410.791 61.84C410.258 58.96 409.298 56.4 407.911 54.16C406.631 51.92 404.765 50.16 402.311 48.88C399.965 47.4933 396.871 46.8 393.031 46.8C389.511 46.8 386.151 47.44 382.951 48.72C379.858 49.8933 377.138 51.76 374.791 54.32C372.551 56.7733 370.738 59.92 369.351 63.76C368.071 67.4933 367.431 71.92 367.431 77.04V114H357.831V60.88ZM435.488 60.88C435.488 59.4933 435.434 57.84 435.328 55.92C435.221 53.8933 435.114 51.8667 435.008 49.84C435.008 47.8133 434.954 45.9467 434.848 44.24C434.741 42.4267 434.688 41.04 434.688 40.08H444.288C444.394 42.8533 444.448 45.52 444.448 48.08C444.554 50.64 444.714 52.2933 444.928 53.04H445.408C447.328 48.9867 450.528 45.52 455.008 42.64C459.488 39.6533 464.714 38.16 470.688 38.16C476.448 38.16 481.141 39.0667 484.768 40.88C488.394 42.6933 491.221 45.0933 493.248 48.08C495.381 50.96 496.821 54.32 497.568 58.16C498.421 62 498.848 65.9467 498.848 70V114H489.248V70.48C489.248 67.4933 488.981 64.6133 488.448 61.84C487.914 58.96 486.954 56.4 485.568 54.16C484.288 51.92 482.421 50.16 479.968 48.88C477.621 47.4933 474.528 46.8 470.688 46.8C467.168 46.8 463.808 47.44 460.608 48.72C457.514 49.8933 454.794 51.76 452.448 54.32C450.208 56.7733 448.394 59.92 447.008 63.76C445.728 67.4933 445.088 71.92 445.088 77.04V114H435.488V60.88ZM486.914 0.719999H515.394L543.394 74.96H543.714L572.194 0.719999H598.914L552.194 114H532.194L486.914 0.719999ZM581.1 75.12C581.1 68.9333 582.22 63.3333 584.46 58.32C586.7 53.3067 589.74 49.04 593.58 45.52C597.527 41.8933 602.113 39.12 607.34 37.2C612.673 35.28 618.327 34.32 624.3 34.32C630.273 34.32 635.873 35.28 641.1 37.2C646.433 39.12 651.02 41.8933 654.86 45.52C658.807 49.04 661.9 53.3067 664.14 58.32C666.38 63.3333 667.5 68.9333 667.5 75.12C667.5 81.3067 666.38 86.9067 664.14 91.92C661.9 96.9333 658.807 101.253 654.86 104.88C651.02 108.4 646.433 111.12 641.1 113.04C635.873 114.96 630.273 115.92 624.3 115.92C618.327 115.92 612.673 114.96 607.34 113.04C602.113 111.12 597.527 108.4 593.58 104.88C589.74 101.253 586.7 96.9333 584.46 91.92C582.22 86.9067 581.1 81.3067 581.1 75.12ZM605.1 75.12C605.1 80.9867 606.753 85.7333 610.06 89.36C613.473 92.9867 618.22 94.8 624.3 94.8C630.38 94.8 635.073 92.9867 638.38 89.36C641.793 85.7333 643.5 80.9867 643.5 75.12C643.5 69.2533 641.793 64.5067 638.38 60.88C635.073 57.2533 630.38 55.44 624.3 55.44C618.22 55.44 613.473 57.2533 610.06 60.88C606.753 64.5067 605.1 69.2533 605.1 75.12ZM727.096 55.44H705.976V81.36C705.976 83.4933 706.083 85.4667 706.296 87.28C706.51 88.9867 706.99 90.48 707.736 91.76C708.483 93.04 709.603 94.0533 711.096 94.8C712.696 95.44 714.776 95.76 717.336 95.76C718.616 95.76 720.27 95.6533 722.296 95.44C724.43 95.12 726.03 94.48 727.096 93.52V113.52C724.43 114.48 721.656 115.12 718.776 115.44C715.896 115.76 713.07 115.92 710.296 115.92C706.243 115.92 702.51 115.493 699.096 114.64C695.683 113.787 692.696 112.453 690.136 110.64C687.576 108.72 685.55 106.267 684.056 103.28C682.67 100.293 681.976 96.6667 681.976 92.4V55.44H666.616V36.24H681.976V13.2H705.976V36.24H727.096V55.44ZM805.393 100.56C801.553 105.467 796.699 109.253 790.833 111.92C784.966 114.587 778.886 115.92 772.593 115.92C766.619 115.92 760.966 114.96 755.633 113.04C750.406 111.12 745.819 108.4 741.873 104.88C738.033 101.253 734.993 96.9333 732.753 91.92C730.513 86.9067 729.393 81.3067 729.393 75.12C729.393 68.9333 730.513 63.3333 732.753 58.32C734.993 53.3067 738.033 49.04 741.873 45.52C745.819 41.8933 750.406 39.12 755.633 37.2C760.966 35.28 766.619 34.32 772.593 34.32C778.139 34.32 783.153 35.28 787.633 37.2C792.219 39.12 796.059 41.8933 799.153 45.52C802.353 49.04 804.806 53.3067 806.513 58.32C808.219 63.3333 809.073 68.9333 809.073 75.12V82.64H753.393C754.353 87.2267 756.433 90.9067 759.633 93.68C762.833 96.3467 766.779 97.68 771.473 97.68C775.419 97.68 778.726 96.8267 781.393 95.12C784.166 93.3067 786.566 91.0133 788.593 88.24L805.393 100.56ZM785.073 66.32C785.179 62.2667 783.846 58.8 781.073 55.92C778.299 53.04 774.726 51.6 770.352 51.6C767.686 51.6 765.339 52.0267 763.312 52.88C761.286 53.7333 759.526 54.8533 758.033 56.24C756.646 57.52 755.526 59.0667 754.673 60.88C753.926 62.5867 753.499 64.4 753.393 66.32H785.073ZM860.168 59.12C856.648 54.7467 852.008 52.56 846.248 52.56C844.221 52.56 842.248 53.04 840.328 54C838.408 54.96 837.448 56.6133 837.448 58.96C837.448 60.88 838.408 62.32 840.328 63.28C842.354 64.1333 844.861 64.9333 847.848 65.68C850.941 66.32 854.194 67.0667 857.608 67.92C861.128 68.6667 864.381 69.8933 867.368 71.6C870.461 73.3067 872.968 75.6533 874.888 78.64C876.914 81.52 877.928 85.4133 877.928 90.32C877.928 95.3333 876.808 99.4933 874.568 102.8C872.434 106 869.661 108.613 866.248 110.64C862.834 112.56 858.994 113.893 854.727 114.64C850.461 115.493 846.248 115.92 842.088 115.92C836.648 115.92 831.154 115.173 825.608 113.68C820.061 112.08 815.368 109.307 811.528 105.36L826.088 89.2C828.328 91.9733 830.781 94.1067 833.448 95.6C836.221 96.9867 839.421 97.68 843.048 97.68C845.821 97.68 848.328 97.3067 850.568 96.56C852.808 95.7067 853.928 94.2133 853.928 92.08C853.928 90.0533 852.914 88.56 850.888 87.6C848.968 86.5333 846.461 85.68 843.368 85.04C840.381 84.2933 837.128 83.5467 833.608 82.8C830.194 81.9467 826.941 80.72 823.848 79.12C820.861 77.52 818.354 75.28 816.328 72.4C814.408 69.4133 813.448 65.4667 813.448 60.56C813.448 55.9733 814.354 52.0267 816.168 48.72C818.088 45.4133 820.541 42.6933 823.528 40.56C826.621 38.4267 830.141 36.88 834.088 35.92C838.034 34.8533 842.034 34.32 846.088 34.32C851.208 34.32 856.381 35.0667 861.608 36.56C866.834 38.0533 871.261 40.72 874.888 44.56L860.168 59.12Z" fill="#20195B"/>
</svg>
